<?xml version="1.0" encoding="utf-8"?>
<!-- Generator: Adobe Illustrator 18.1.1, SVG Export Plug-In . SVG Version: 6.00 Build 0)  -->
<!DOCTYPE svg PUBLIC "-//W3C//DTD SVG 1.1//EN" "http://www.w3.org/Graphics/SVG/1.1/DTD/svg11.dtd">
<svg version="1.1" id="Layer_1" xmlns="http://www.w3.org/2000/svg" xmlns:xlink="http://www.w3.org/1999/xlink" x="0px" y="0px"
	 viewBox="0 0 288 288" enable-background="new 0 0 288 288" xml:space="preserve">
<g>
	<path fill="#016699" d="M149,238.9c0,0,0-0.1,0-0.1h-10c0,0,0,0.1,0,0.1c-0.5-2.9-12.1-15-32.8-16.1c-21.6-1.2-27.6-25.6-27.7-38.4
		l10-0.1c0,0.3,0.6,27.6,18.3,28.5c16.7,0.9,30.3,8.2,37.2,15.8c6.9-7.6,20.5-14.9,37.2-15.8c17.7-1,18.3-28.2,18.3-28.5l10,0.1
		c-0.2,12.8-6.2,37.2-27.7,38.4C161.1,223.9,149.5,236.1,149,238.9z"/>
</g>
<g>
	<polygon fill="#016699" points="88.5,160.1 88.5,184.8 74.2,184.8 	"/>
</g>
<g>
	<polygon fill="#016699" points="199.5,160.1 199.5,184.8 213.8,184.8 	"/>
</g>
<g>
	<rect x="139" y="78.1" fill="#016699" width="10" height="154"/>
</g>
<g>
	<path fill="#016699" d="M144,81c-7.7,0-14-6.3-14-14s6.3-14,14-14s14,6.3,14,14S151.7,81,144,81z M144,59c-4.4,0-8,3.6-8,8
		c0,4.4,3.6,8,8,8c4.4,0,8-3.6,8-8C152,62.6,148.4,59,144,59z"/>
</g>
<g>
	<rect x="93.4" y="83.6" fill="#016699" width="101.1" height="8"/>
</g>
<g>
	<circle fill="#016699" cx="91.8" cy="87.6" r="11.2"/>
</g>
<g>
	<circle fill="#016699" cx="194.5" cy="87.6" r="11.2"/>
</g>
<circle fill="none" stroke="#016699" stroke-width="9" stroke-miterlimit="10" cx="144" cy="144.1" r="120.9"/>
</svg>
