<?xml version="1.0" encoding="utf-8"?>
<!-- Generator: Adobe Illustrator 18.1.1, SVG Export Plug-In . SVG Version: 6.00 Build 0)  -->
<!DOCTYPE svg PUBLIC "-//W3C//DTD SVG 1.1//EN" "http://www.w3.org/Graphics/SVG/1.1/DTD/svg11.dtd">
<svg version="1.1" id="Layer_1" xmlns="http://www.w3.org/2000/svg" xmlns:xlink="http://www.w3.org/1999/xlink" x="0px" y="0px"
	 viewBox="0 0 560 2505" enable-background="new 0 0 560 2505" xml:space="preserve">
<path fill="#455861" d="M464.5,2286.4v73.2c-12,19.6-26.1,32.5-42.2,38.5c-15.1,5.6-27.9,4.1-42.8,2.4c-15.8-1.8-33.4-3.9-54.1,3.6
	c-11.7,4.3-22.8,10.8-31.8,19.5v-306.2l95.2-5.9v-18.1l-95.2-5.9v-31.3c13.8-5.9,23.5-19.6,23.5-35.6c0-21.4-17.3-38.7-38.7-38.7
	c-21.4,0-38.7,17.3-38.7,38.7c0,16.1,9.8,29.9,23.8,35.7v31.1l-100.2,5.9v18.1l100.2,5.9v305.8c-10-8.6-20.2-15-31.7-19.2
	c-20.7-7.6-38.6-5.5-54.4-3.6c-14.9,1.7-28.1,3.2-43.2-2.4c-17.5-6.5-32.7-21.2-45.7-43.6v-68.2l-57.3,80.1h36.7
	c15.6,28,35.2,45.8,58.1,54.4c20.5,7.6,38.4,5.6,54.2,3.8c15-1.7,27.9-3.2,43.2,2.4c17.6,6.4,32.6,20.1,44.6,40.6l10.5,18l10.5-18
	c12-20.5,27-34.2,44.6-40.6c15.3-5.6,28.2-4.1,43.2-2.3c15.8,1.8,33.7,3.8,54.2-3.8c23-8.6,42.5-26.4,58.1-54.4h33.7L464.5,2286.4z
	 M259,2020.7c0-10.7,8.7-19.3,19.3-19.3c10.7,0,19.3,8.7,19.3,19.3c0,4.5-1.6,8.7-4.2,12c-3.5,4.5-9,7.4-15.2,7.4
	c-6,0-11.3-2.7-14.8-6.9C260.7,2029.7,259,2025.4,259,2020.7z"/>
<g>
	<path fill="#455861" d="M278.5,2019.2h-0.1c-10.2,0-18.4-8.3-18.4-18.4V1962c0-10.2,8.3-18.4,18.4-18.4h0.1
		c10.2,0,18.4,8.3,18.4,18.4v38.7C296.9,2010.9,288.6,2019.2,278.5,2019.2z M278.3,1950c-6.6,0-12,5.4-12,12v38.7
		c0,6.6,5.4,12,12,12h0.1c6.6,0,12-5.4,12-12V1962c0-6.6-5.4-12-12-12H278.3z"/>
</g>
<g>
	<path fill="#455861" d="M286.5,1957.2h-0.1c-10.2,0-18.4-8.3-18.4-18.4V1900c0-10.2,8.3-18.4,18.4-18.4h0.1
		c10.2,0,18.4,8.3,18.4,18.4v38.7C304.9,1948.9,296.6,1957.2,286.5,1957.2z M286.3,1888c-6.6,0-12,5.4-12,12v38.7
		c0,6.6,5.4,12,12,12h0.1c6.6,0,12-5.4,12-12V1900c0-6.6-5.4-12-12-12H286.3z"/>
</g>
<g>
	<path fill="#455861" d="M278.5,1896.5h-0.1c-10.2,0-18.4-8.3-18.4-18.4v-38.7c0-10.2,8.3-18.4,18.4-18.4h0.1
		c10.2,0,18.4,8.3,18.4,18.4v38.7C296.9,1888.3,288.6,1896.5,278.5,1896.5z M278.3,1827.3c-6.6,0-12,5.4-12,12v38.7
		c0,6.6,5.4,12,12,12h0.1c6.6,0,12-5.4,12-12v-38.7c0-6.6-5.4-12-12-12H278.3z"/>
</g>
<g>
	<path fill="#455861" d="M286.5,1834.5h-0.1c-10.2,0-18.4-8.3-18.4-18.4v-38.7c0-10.2,8.3-18.4,18.4-18.4h0.1
		c10.2,0,18.4,8.3,18.4,18.4v38.7C304.9,1826.3,296.6,1834.5,286.5,1834.5z M286.3,1765.3c-6.6,0-12,5.4-12,12v38.7
		c0,6.6,5.4,12,12,12h0.1c6.6,0,12-5.4,12-12v-38.7c0-6.6-5.4-12-12-12H286.3z"/>
</g>
<g>
	<path fill="#455861" d="M278.5,1773.9h-0.1c-10.2,0-18.4-8.3-18.4-18.4v-38.7c0-10.2,8.3-18.4,18.4-18.4h0.1
		c10.2,0,18.4,8.3,18.4,18.4v38.7C296.9,1765.6,288.6,1773.9,278.5,1773.9z M278.3,1704.7c-6.6,0-12,5.4-12,12v38.7
		c0,6.6,5.4,12,12,12h0.1c6.6,0,12-5.4,12-12v-38.7c0-6.6-5.4-12-12-12H278.3z"/>
</g>
<g>
	<path fill="#455861" d="M286.5,1711.9h-0.1c-10.2,0-18.4-8.3-18.4-18.4v-38.7c0-10.2,8.3-18.4,18.4-18.4h0.1
		c10.2,0,18.4,8.3,18.4,18.4v38.7C304.9,1703.6,296.6,1711.9,286.5,1711.9z M286.3,1642.7c-6.6,0-12,5.4-12,12v38.7
		c0,6.6,5.4,12,12,12h0.1c6.6,0,12-5.4,12-12v-38.7c0-6.6-5.4-12-12-12H286.3z"/>
</g>
<g>
	<path fill="#455861" d="M278.5,1651.2h-0.1c-10.2,0-18.4-8.3-18.4-18.4V1594c0-10.2,8.3-18.4,18.4-18.4h0.1
		c10.2,0,18.4,8.3,18.4,18.4v38.7C296.9,1642.9,288.6,1651.2,278.5,1651.2z M278.3,1582c-6.6,0-12,5.4-12,12v38.7
		c0,6.6,5.4,12,12,12h0.1c6.6,0,12-5.4,12-12V1594c0-6.6-5.4-12-12-12H278.3z"/>
</g>
<g>
	<path fill="#455861" d="M286.5,1589.2h-0.1c-10.2,0-18.4-8.3-18.4-18.4V1532c0-10.2,8.3-18.4,18.4-18.4h0.1
		c10.2,0,18.4,8.3,18.4,18.4v38.7C304.9,1580.9,296.6,1589.2,286.5,1589.2z M286.3,1520c-6.6,0-12,5.4-12,12v38.7
		c0,6.6,5.4,12,12,12h0.1c6.6,0,12-5.4,12-12V1532c0-6.6-5.4-12-12-12H286.3z"/>
</g>
<g>
	<path fill="#455861" d="M278.5,1528.6h-0.1c-10.2,0-18.4-8.3-18.4-18.4v-38.7c0-10.2,8.3-18.4,18.4-18.4h0.1
		c10.2,0,18.4,8.3,18.4,18.4v38.7C296.9,1520.3,288.6,1528.6,278.5,1528.6z M278.3,1459.4c-6.6,0-12,5.4-12,12v38.7
		c0,6.6,5.4,12,12,12h0.1c6.6,0,12-5.4,12-12v-38.7c0-6.6-5.4-12-12-12H278.3z"/>
</g>
<g>
	<path fill="#455861" d="M286.5,1466.6h-0.1c-10.2,0-18.4-8.3-18.4-18.4v-38.7c0-10.2,8.3-18.4,18.4-18.4h0.1
		c10.2,0,18.4,8.3,18.4,18.4v38.7C304.9,1458.3,296.6,1466.6,286.5,1466.6z M286.3,1397.4c-6.6,0-12,5.4-12,12v38.7
		c0,6.6,5.4,12,12,12h0.1c6.6,0,12-5.4,12-12v-38.7c0-6.6-5.4-12-12-12H286.3z"/>
</g>
<g>
	<path fill="#455861" d="M278.5,1407.1h-0.1c-10.2,0-18.4-8.3-18.4-18.4v-38.7c0-10.2,8.3-18.4,18.4-18.4h0.1
		c10.2,0,18.4,8.3,18.4,18.4v38.7C296.9,1398.8,288.6,1407.1,278.5,1407.1z M278.3,1337.9c-6.6,0-12,5.4-12,12v38.7
		c0,6.6,5.4,12,12,12h0.1c6.6,0,12-5.4,12-12v-38.7c0-6.6-5.4-12-12-12H278.3z"/>
</g>
<g>
	<path fill="#455861" d="M286.5,1345.1h-0.1c-10.2,0-18.4-8.3-18.4-18.4v-38.7c0-10.2,8.3-18.4,18.4-18.4h0.1
		c10.2,0,18.4,8.3,18.4,18.4v38.7C304.9,1336.8,296.6,1345.1,286.5,1345.1z M286.3,1275.9c-6.6,0-12,5.4-12,12v38.7
		c0,6.6,5.4,12,12,12h0.1c6.6,0,12-5.4,12-12v-38.7c0-6.6-5.4-12-12-12H286.3z"/>
</g>
<g>
	<path fill="#455861" d="M278.5,1284.4h-0.1c-10.2,0-18.4-8.3-18.4-18.4v-38.7c0-10.2,8.3-18.4,18.4-18.4h0.1
		c10.2,0,18.4,8.3,18.4,18.4v38.7C296.9,1276.1,288.6,1284.4,278.5,1284.4z M278.3,1215.2c-6.6,0-12,5.4-12,12v38.7
		c0,6.6,5.4,12,12,12h0.1c6.6,0,12-5.4,12-12v-38.7c0-6.6-5.4-12-12-12H278.3z"/>
</g>
<g>
	<path fill="#455861" d="M286.5,1222.4h-0.1c-10.2,0-18.4-8.3-18.4-18.4v-38.7c0-10.2,8.3-18.4,18.4-18.4h0.1
		c10.2,0,18.4,8.3,18.4,18.4v38.7C304.9,1214.1,296.6,1222.4,286.5,1222.4z M286.3,1153.2c-6.6,0-12,5.4-12,12v38.7
		c0,6.6,5.4,12,12,12h0.1c6.6,0,12-5.4,12-12v-38.7c0-6.6-5.4-12-12-12H286.3z"/>
</g>
<g>
	<path fill="#455861" d="M278.5,1161.8h-0.1c-10.2,0-18.4-8.3-18.4-18.4v-38.7c0-10.2,8.3-18.4,18.4-18.4h0.1
		c10.2,0,18.4,8.3,18.4,18.4v38.7C296.9,1153.5,288.6,1161.8,278.5,1161.8z M278.3,1092.6c-6.6,0-12,5.4-12,12v38.7
		c0,6.6,5.4,12,12,12h0.1c6.6,0,12-5.4,12-12v-38.7c0-6.6-5.4-12-12-12H278.3z"/>
</g>
<g>
	<path fill="#455861" d="M286.5,1099.8h-0.1c-10.2,0-18.4-8.3-18.4-18.4v-38.7c0-10.2,8.3-18.4,18.4-18.4h0.1
		c10.2,0,18.4,8.3,18.4,18.4v38.7C304.9,1091.5,296.6,1099.8,286.5,1099.8z M286.3,1030.6c-6.6,0-12,5.4-12,12v38.7
		c0,6.6,5.4,12,12,12h0.1c6.6,0,12-5.4,12-12v-38.7c0-6.6-5.4-12-12-12H286.3z"/>
</g>
<g>
	<path fill="#455861" d="M278.5,1039.1h-0.1c-10.2,0-18.4-8.3-18.4-18.4v-38.7c0-10.2,8.3-18.4,18.4-18.4h0.1
		c10.2,0,18.4,8.3,18.4,18.4v38.7C296.9,1030.8,288.6,1039.1,278.5,1039.1z M278.3,969.9c-6.6,0-12,5.4-12,12v38.7
		c0,6.6,5.4,12,12,12h0.1c6.6,0,12-5.4,12-12v-38.7c0-6.6-5.4-12-12-12H278.3z"/>
</g>
<g>
	<path fill="#455861" d="M286.5,977.1h-0.1c-10.2,0-18.4-8.3-18.4-18.4v-38.7c0-10.2,8.3-18.4,18.4-18.4h0.1
		c10.2,0,18.4,8.3,18.4,18.4v38.7C304.9,968.8,296.6,977.1,286.5,977.1z M286.3,907.9c-6.6,0-12,5.4-12,12v38.7c0,6.6,5.4,12,12,12
		h0.1c6.6,0,12-5.4,12-12v-38.7c0-6.6-5.4-12-12-12H286.3z"/>
</g>
<g>
	<path fill="#455861" d="M278.5,916.4h-0.1c-10.2,0-18.4-8.3-18.4-18.4v-38.7c0-10.2,8.3-18.4,18.4-18.4h0.1
		c10.2,0,18.4,8.3,18.4,18.4V898C296.9,908.2,288.6,916.4,278.5,916.4z M278.3,847.3c-6.6,0-12,5.4-12,12V898c0,6.6,5.4,12,12,12
		h0.1c6.6,0,12-5.4,12-12v-38.7c0-6.6-5.4-12-12-12H278.3z"/>
</g>
<g>
	<path fill="#455861" d="M286.5,854.4h-0.1c-10.2,0-18.4-8.3-18.4-18.4v-38.7c0-10.2,8.3-18.4,18.4-18.4h0.1
		c10.2,0,18.4,8.3,18.4,18.4V836C304.9,846.2,296.6,854.4,286.5,854.4z M286.3,785.3c-6.6,0-12,5.4-12,12V836c0,6.6,5.4,12,12,12
		h0.1c6.6,0,12-5.4,12-12v-38.7c0-6.6-5.4-12-12-12H286.3z"/>
</g>
<g>
	<path fill="#455861" d="M278.5,790.6h-0.1c-10.2,0-18.4-8.3-18.4-18.4v-38.7c0-10.2,8.3-18.4,18.4-18.4h0.1
		c10.2,0,18.4,8.3,18.4,18.4v38.7C296.9,782.3,288.6,790.6,278.5,790.6z M278.3,721.4c-6.6,0-12,5.4-12,12v38.7c0,6.6,5.4,12,12,12
		h0.1c6.6,0,12-5.4,12-12v-38.7c0-6.6-5.4-12-12-12H278.3z"/>
</g>
<g>
	<path fill="#455861" d="M286.5,728.6h-0.1c-10.2,0-18.4-8.3-18.4-18.4v-38.7c0-10.2,8.3-18.4,18.4-18.4h0.1
		c10.2,0,18.4,8.3,18.4,18.4v38.7C304.9,720.3,296.6,728.6,286.5,728.6z M286.3,659.4c-6.6,0-12,5.4-12,12v38.7c0,6.6,5.4,12,12,12
		h0.1c6.6,0,12-5.4,12-12v-38.7c0-6.6-5.4-12-12-12H286.3z"/>
</g>
<g>
	<path fill="#455861" d="M278.5,669.1h-0.1c-10.2,0-18.4-8.3-18.4-18.4v-38.7c0-10.2,8.3-18.4,18.4-18.4h0.1
		c10.2,0,18.4,8.3,18.4,18.4v38.7C296.9,660.8,288.6,669.1,278.5,669.1z M278.3,599.9c-6.6,0-12,5.4-12,12v38.7c0,6.6,5.4,12,12,12
		h0.1c6.6,0,12-5.4,12-12v-38.7c0-6.6-5.4-12-12-12H278.3z"/>
</g>
<g>
	<path fill="#455861" d="M286.5,607.1h-0.1c-10.2,0-18.4-8.3-18.4-18.4v-38.7c0-10.2,8.3-18.4,18.4-18.4h0.1
		c10.2,0,18.4,8.3,18.4,18.4v38.7C304.9,598.8,296.6,607.1,286.5,607.1z M286.3,537.9c-6.6,0-12,5.4-12,12v38.7c0,6.6,5.4,12,12,12
		h0.1c6.6,0,12-5.4,12-12v-38.7c0-6.6-5.4-12-12-12H286.3z"/>
</g>
<g>
	<path fill="#455861" d="M278.5,546.4h-0.1c-10.2,0-18.4-8.3-18.4-18.4v-38.7c0-10.2,8.3-18.4,18.4-18.4h0.1
		c10.2,0,18.4,8.3,18.4,18.4V528C296.9,538.2,288.6,546.4,278.5,546.4z M278.3,477.3c-6.6,0-12,5.4-12,12V528c0,6.6,5.4,12,12,12
		h0.1c6.6,0,12-5.4,12-12v-38.7c0-6.6-5.4-12-12-12H278.3z"/>
</g>
<g>
	<path fill="#455861" d="M286.5,484.4h-0.1c-10.2,0-18.4-8.3-18.4-18.4v-38.7c0-10.2,8.3-18.4,18.4-18.4h0.1
		c10.2,0,18.4,8.3,18.4,18.4V466C304.9,476.2,296.6,484.4,286.5,484.4z M286.3,415.3c-6.6,0-12,5.4-12,12V466c0,6.6,5.4,12,12,12
		h0.1c6.6,0,12-5.4,12-12v-38.7c0-6.6-5.4-12-12-12H286.3z"/>
</g>
<g>
	<path fill="#455861" d="M278.5,423.8h-0.1c-10.2,0-18.4-8.3-18.4-18.4v-38.7c0-10.2,8.3-18.4,18.4-18.4h0.1
		c10.2,0,18.4,8.3,18.4,18.4v38.7C296.9,415.5,288.6,423.8,278.5,423.8z M278.3,354.6c-6.6,0-12,5.4-12,12v38.7c0,6.6,5.4,12,12,12
		h0.1c6.6,0,12-5.4,12-12v-38.7c0-6.6-5.4-12-12-12H278.3z"/>
</g>
<g>
	<path fill="#455861" d="M286.5,361.8h-0.1c-10.2,0-18.4-8.3-18.4-18.4v-38.7c0-10.2,8.3-18.4,18.4-18.4h0.1
		c10.2,0,18.4,8.3,18.4,18.4v38.7C304.9,353.5,296.6,361.8,286.5,361.8z M286.3,292.6c-6.6,0-12,5.4-12,12v38.7c0,6.6,5.4,12,12,12
		h0.1c6.6,0,12-5.4,12-12v-38.7c0-6.6-5.4-12-12-12H286.3z"/>
</g>
<g>
	<path fill="#455861" d="M278.5,301.1h-0.1c-10.2,0-18.4-8.3-18.4-18.4v-38.7c0-10.2,8.3-18.4,18.4-18.4h0.1
		c10.2,0,18.4,8.3,18.4,18.4v38.7C296.9,292.9,288.6,301.1,278.5,301.1z M278.3,231.9c-6.6,0-12,5.4-12,12v38.7c0,6.6,5.4,12,12,12
		h0.1c6.6,0,12-5.4,12-12v-38.7c0-6.6-5.4-12-12-12H278.3z"/>
</g>
<g>
	<path fill="#455861" d="M286.5,239.1h-0.1c-10.2,0-18.4-8.3-18.4-18.4v-38.7c0-10.2,8.3-18.4,18.4-18.4h0.1
		c10.2,0,18.4,8.3,18.4,18.4v38.7C304.9,230.9,296.6,239.1,286.5,239.1z M286.3,169.9c-6.6,0-12,5.4-12,12v38.7c0,6.6,5.4,12,12,12
		h0.1c6.6,0,12-5.4,12-12v-38.7c0-6.6-5.4-12-12-12H286.3z"/>
</g>
<g>
	<path fill="#455861" d="M278.5,178.5h-0.1c-10.2,0-18.4-8.3-18.4-18.4v-38.7c0-10.2,8.3-18.4,18.4-18.4h0.1
		c10.2,0,18.4,8.3,18.4,18.4V160C296.9,170.2,288.6,178.5,278.5,178.5z M278.3,109.3c-6.6,0-12,5.4-12,12V160c0,6.6,5.4,12,12,12
		h0.1c6.6,0,12-5.4,12-12v-38.7c0-6.6-5.4-12-12-12H278.3z"/>
</g>
<g>
	<path fill="#455861" d="M286.5,116.5h-0.1c-10.2,0-18.4-8.3-18.4-18.4V59.3c0-10.2,8.3-18.4,18.4-18.4h0.1
		c10.2,0,18.4,8.3,18.4,18.4V98C304.9,108.2,296.6,116.5,286.5,116.5z M286.3,47.3c-6.6,0-12,5.4-12,12V98c0,6.6,5.4,12,12,12h0.1
		c6.6,0,12-5.4,12-12V59.3c0-6.6-5.4-12-12-12H286.3z"/>
</g>
</svg>
