<svg xmlns="http://www.w3.org/2000/svg" viewBox="0 0 560 2505" enable-background="new 0 0 560 2505"><path fill="#455861" d="M464.5 2286.4v73.2c-12 19.6-26.1 32.5-42.2 38.5-15.1 5.6-27.9 4.1-42.8 2.4-15.8-1.8-33.4-3.9-54.1 3.6-11.7 4.3-22.8 10.8-31.8 19.5v-306.2l95.2-5.9v-18.1l-95.2-5.9v-31.3c13.8-5.9 23.5-19.6 23.5-35.6 0-21.4-17.3-38.7-38.7-38.7-21.4 0-38.7 17.3-38.7 38.7 0 16.1 9.8 29.9 23.8 35.7v31.1l-100.2 5.9v18.1l100.2 5.9v305.8c-10-8.6-20.2-15-31.7-19.2-20.7-7.6-38.6-5.5-54.4-3.6-14.9 1.7-28.1 3.2-43.2-2.4-17.5-6.5-32.7-21.2-45.7-43.6v-68.2l-57.3 80.1h36.7c15.6 28 35.2 45.8 58.1 54.4 20.5 7.6 38.4 5.6 54.2 3.8 15-1.7 27.9-3.2 43.2 2.4 17.6 6.4 32.6 20.1 44.6 40.6l10.5 18 10.5-18c12-20.5 27-34.2 44.6-40.6 15.3-5.6 28.2-4.1 43.2-2.3 15.8 1.8 33.7 3.8 54.2-3.8 23-8.6 42.5-26.4 58.1-54.4h33.7l-58.3-79.9zm-205.5-265.7c0-10.7 8.7-19.3 19.3-19.3 10.7 0 19.3 8.7 19.3 19.3 0 4.5-1.6 8.7-4.2 12-3.5 4.5-9 7.4-15.2 7.4-6 0-11.3-2.7-14.8-6.9-2.7-3.5-4.4-7.8-4.4-12.5zm19.5-1.5h-.1c-10.2 0-18.4-8.3-18.4-18.4v-38.8c0-10.2 8.3-18.4 18.4-18.4h.1c10.2 0 18.4 8.3 18.4 18.4v38.7c0 10.2-8.3 18.5-18.4 18.5zm-.2-69.2c-6.6 0-12 5.4-12 12v38.7c0 6.6 5.4 12 12 12h.1c6.6 0 12-5.4 12-12v-38.7c0-6.6-5.4-12-12-12h-.1zm8.2 7.2h-.1c-10.2 0-18.4-8.3-18.4-18.4v-38.8c0-10.2 8.3-18.4 18.4-18.4h.1c10.2 0 18.4 8.3 18.4 18.4v38.7c0 10.2-8.3 18.5-18.4 18.5zm-.2-69.2c-6.6 0-12 5.4-12 12v38.7c0 6.6 5.4 12 12 12h.1c6.6 0 12-5.4 12-12v-38.7c0-6.6-5.4-12-12-12h-.1zm-7.8 8.5h-.1c-10.2 0-18.4-8.3-18.4-18.4v-38.7c0-10.2 8.3-18.4 18.4-18.4h.1c10.2 0 18.4 8.3 18.4 18.4v38.7c0 10.2-8.3 18.4-18.4 18.4zm-.2-69.2c-6.6 0-12 5.4-12 12v38.7c0 6.6 5.4 12 12 12h.1c6.6 0 12-5.4 12-12v-38.7c0-6.6-5.4-12-12-12h-.1zm8.2 7.2h-.1c-10.2 0-18.4-8.3-18.4-18.4v-38.7c0-10.2 8.3-18.4 18.4-18.4h.1c10.2 0 18.4 8.3 18.4 18.4v38.7c0 10.2-8.3 18.4-18.4 18.4zm-.2-69.2c-6.6 0-12 5.4-12 12v38.7c0 6.6 5.4 12 12 12h.1c6.6 0 12-5.4 12-12v-38.7c0-6.6-5.4-12-12-12h-.1zm-7.8 8.6h-.1c-10.2 0-18.4-8.3-18.4-18.4v-38.7c0-10.2 8.3-18.4 18.4-18.4h.1c10.2 0 18.4 8.3 18.4 18.4v38.7c0 10.1-8.3 18.4-18.4 18.4zm-.2-69.2c-6.6 0-12 5.4-12 12v38.7c0 6.6 5.4 12 12 12h.1c6.6 0 12-5.4 12-12v-38.7c0-6.6-5.4-12-12-12h-.1zm8.2 7.2h-.1c-10.2 0-18.4-8.3-18.4-18.4v-38.7c0-10.2 8.3-18.4 18.4-18.4h.1c10.2 0 18.4 8.3 18.4 18.4v38.7c0 10.1-8.3 18.4-18.4 18.4zm-.2-69.2c-6.6 0-12 5.4-12 12v38.7c0 6.6 5.4 12 12 12h.1c6.6 0 12-5.4 12-12v-38.7c0-6.6-5.4-12-12-12h-.1zm-7.8 8.5h-.1c-10.2 0-18.4-8.3-18.4-18.4v-38.8c0-10.2 8.3-18.4 18.4-18.4h.1c10.2 0 18.4 8.3 18.4 18.4v38.7c0 10.2-8.3 18.5-18.4 18.5zm-.2-69.2c-6.6 0-12 5.4-12 12v38.7c0 6.6 5.4 12 12 12h.1c6.6 0 12-5.4 12-12v-38.7c0-6.6-5.4-12-12-12h-.1zm8.2 7.2h-.1c-10.2 0-18.4-8.3-18.4-18.4v-38.8c0-10.2 8.3-18.4 18.4-18.4h.1c10.2 0 18.4 8.3 18.4 18.4v38.7c0 10.2-8.3 18.5-18.4 18.5zm-.2-69.2c-6.6 0-12 5.4-12 12v38.7c0 6.6 5.4 12 12 12h.1c6.6 0 12-5.4 12-12v-38.7c0-6.6-5.4-12-12-12h-.1zm-7.8 8.6h-.1c-10.2 0-18.4-8.3-18.4-18.4v-38.7c0-10.2 8.3-18.4 18.4-18.4h.1c10.2 0 18.4 8.3 18.4 18.4v38.7c0 10.1-8.3 18.4-18.4 18.4zm-.2-69.2c-6.6 0-12 5.4-12 12v38.7c0 6.6 5.4 12 12 12h.1c6.6 0 12-5.4 12-12v-38.7c0-6.6-5.4-12-12-12h-.1zm8.2 7.2h-.1c-10.2 0-18.4-8.3-18.4-18.4v-38.7c0-10.2 8.3-18.4 18.4-18.4h.1c10.2 0 18.4 8.3 18.4 18.4v38.7c0 10.1-8.3 18.4-18.4 18.4zm-.2-69.2c-6.6 0-12 5.4-12 12v38.7c0 6.6 5.4 12 12 12h.1c6.6 0 12-5.4 12-12v-38.7c0-6.6-5.4-12-12-12h-.1zm-7.8 9.7h-.1c-10.2 0-18.4-8.3-18.4-18.4v-38.7c0-10.2 8.3-18.4 18.4-18.4h.1c10.2 0 18.4 8.3 18.4 18.4v38.7c0 10.1-8.3 18.4-18.4 18.4zm-.2-69.2c-6.6 0-12 5.4-12 12v38.7c0 6.6 5.4 12 12 12h.1c6.6 0 12-5.4 12-12v-38.7c0-6.6-5.4-12-12-12h-.1zm8.2 7.2h-.1c-10.2 0-18.4-8.3-18.4-18.4v-38.7c0-10.2 8.3-18.4 18.4-18.4h.1c10.2 0 18.4 8.3 18.4 18.4v38.7c0 10.1-8.3 18.4-18.4 18.4zm-.2-69.2c-6.6 0-12 5.4-12 12v38.7c0 6.6 5.4 12 12 12h.1c6.6 0 12-5.4 12-12v-38.7c0-6.6-5.4-12-12-12h-.1zm-7.8 8.5h-.1c-10.2 0-18.4-8.3-18.4-18.4v-38.7c0-10.2 8.3-18.4 18.4-18.4h.1c10.2 0 18.4 8.3 18.4 18.4v38.7c0 10.1-8.3 18.4-18.4 18.4zm-.2-69.2c-6.6 0-12 5.4-12 12v38.7c0 6.6 5.4 12 12 12h.1c6.6 0 12-5.4 12-12v-38.7c0-6.6-5.4-12-12-12h-.1zm8.2 7.2h-.1c-10.2 0-18.4-8.3-18.4-18.4v-38.7c0-10.2 8.3-18.4 18.4-18.4h.1c10.2 0 18.4 8.3 18.4 18.4v38.7c0 10.1-8.3 18.4-18.4 18.4zm-.2-69.2c-6.6 0-12 5.4-12 12v38.7c0 6.6 5.4 12 12 12h.1c6.6 0 12-5.4 12-12v-38.7c0-6.6-5.4-12-12-12h-.1zm-7.8 8.6h-.1c-10.2 0-18.4-8.3-18.4-18.4v-38.7c0-10.2 8.3-18.4 18.4-18.4h.1c10.2 0 18.4 8.3 18.4 18.4v38.7c0 10.1-8.3 18.4-18.4 18.4zm-.2-69.2c-6.6 0-12 5.4-12 12v38.7c0 6.6 5.4 12 12 12h.1c6.6 0 12-5.4 12-12v-38.7c0-6.6-5.4-12-12-12h-.1zm8.2 7.2h-.1c-10.2 0-18.4-8.3-18.4-18.4v-38.7c0-10.2 8.3-18.4 18.4-18.4h.1c10.2 0 18.4 8.3 18.4 18.4v38.7c0 10.1-8.3 18.4-18.4 18.4zm-.2-69.2c-6.6 0-12 5.4-12 12v38.7c0 6.6 5.4 12 12 12h.1c6.6 0 12-5.4 12-12v-38.7c0-6.6-5.4-12-12-12h-.1zm-7.8 8.5h-.1c-10.2 0-18.4-8.3-18.4-18.4v-38.7c0-10.2 8.3-18.4 18.4-18.4h.1c10.2 0 18.4 8.3 18.4 18.4v38.7c0 10.1-8.3 18.4-18.4 18.4zm-.2-69.2c-6.6 0-12 5.4-12 12v38.7c0 6.6 5.4 12 12 12h.1c6.6 0 12-5.4 12-12v-38.7c0-6.6-5.4-12-12-12h-.1zm8.2 7.2h-.1c-10.2 0-18.4-8.3-18.4-18.4v-38.7c0-10.2 8.3-18.4 18.4-18.4h.1c10.2 0 18.4 8.3 18.4 18.4v38.7c0 10.1-8.3 18.4-18.4 18.4zm-.2-69.2c-6.6 0-12 5.4-12 12v38.7c0 6.6 5.4 12 12 12h.1c6.6 0 12-5.4 12-12v-38.7c0-6.6-5.4-12-12-12h-.1zm-7.8 8.5h-.1c-10.2 0-18.4-8.3-18.4-18.4v-38.7c0-10.2 8.3-18.4 18.4-18.4h.1c10.2 0 18.4 8.3 18.4 18.4v38.7c0 10.2-8.3 18.4-18.4 18.4zm-.2-69.1c-6.6 0-12 5.4-12 12v38.7c0 6.6 5.4 12 12 12h.1c6.6 0 12-5.4 12-12v-38.7c0-6.6-5.4-12-12-12h-.1zm8.2 7.1h-.1c-10.2 0-18.4-8.3-18.4-18.4v-38.7c0-10.2 8.3-18.4 18.4-18.4h.1c10.2 0 18.4 8.3 18.4 18.4v38.7c0 10.2-8.3 18.4-18.4 18.4zm-.2-69.1c-6.6 0-12 5.4-12 12v38.7c0 6.6 5.4 12 12 12h.1c6.6 0 12-5.4 12-12v-38.7c0-6.6-5.4-12-12-12h-.1zm-7.8 5.3h-.1c-10.2 0-18.4-8.3-18.4-18.4v-38.7c0-10.2 8.3-18.4 18.4-18.4h.1c10.2 0 18.4 8.3 18.4 18.4v38.7c0 10.1-8.3 18.4-18.4 18.4zm-.2-69.2c-6.6 0-12 5.4-12 12v38.7c0 6.6 5.4 12 12 12h.1c6.6 0 12-5.4 12-12v-38.7c0-6.6-5.4-12-12-12h-.1zm8.2 7.2h-.1c-10.2 0-18.4-8.3-18.4-18.4v-38.7c0-10.2 8.3-18.4 18.4-18.4h.1c10.2 0 18.4 8.3 18.4 18.4v38.7c0 10.1-8.3 18.4-18.4 18.4zm-.2-69.2c-6.6 0-12 5.4-12 12v38.7c0 6.6 5.4 12 12 12h.1c6.6 0 12-5.4 12-12v-38.7c0-6.6-5.4-12-12-12h-.1zm-7.8 9.7h-.1c-10.2 0-18.4-8.3-18.4-18.4v-38.7c0-10.2 8.3-18.4 18.4-18.4h.1c10.2 0 18.4 8.3 18.4 18.4v38.7c0 10.1-8.3 18.4-18.4 18.4zm-.2-69.2c-6.6 0-12 5.4-12 12v38.7c0 6.6 5.4 12 12 12h.1c6.6 0 12-5.4 12-12v-38.7c0-6.6-5.4-12-12-12h-.1zm8.2 7.2h-.1c-10.2 0-18.4-8.3-18.4-18.4v-38.7c0-10.2 8.3-18.4 18.4-18.4h.1c10.2 0 18.4 8.3 18.4 18.4v38.7c0 10.1-8.3 18.4-18.4 18.4zm-.2-69.2c-6.6 0-12 5.4-12 12v38.7c0 6.6 5.4 12 12 12h.1c6.6 0 12-5.4 12-12v-38.7c0-6.6-5.4-12-12-12h-.1zm-7.8 8.5h-.1c-10.2 0-18.4-8.3-18.4-18.4v-38.7c0-10.2 8.3-18.4 18.4-18.4h.1c10.2 0 18.4 8.3 18.4 18.4v38.7c0 10.2-8.3 18.4-18.4 18.4zm-.2-69.1c-6.6 0-12 5.4-12 12v38.7c0 6.6 5.4 12 12 12h.1c6.6 0 12-5.4 12-12v-38.7c0-6.6-5.4-12-12-12h-.1zm8.2 7.1h-.1c-10.2 0-18.4-8.3-18.4-18.4v-38.7c0-10.2 8.3-18.4 18.4-18.4h.1c10.2 0 18.4 8.3 18.4 18.4v38.7c0 10.2-8.3 18.4-18.4 18.4zm-.2-69.1c-6.6 0-12 5.4-12 12v38.7c0 6.6 5.4 12 12 12h.1c6.6 0 12-5.4 12-12v-38.7c0-6.6-5.4-12-12-12h-.1zm-7.8 8.5h-.1c-10.2 0-18.4-8.3-18.4-18.4v-38.7c0-10.2 8.3-18.4 18.4-18.4h.1c10.2 0 18.4 8.3 18.4 18.4v38.7c0 10.1-8.3 18.4-18.4 18.4zm-.2-69.2c-6.6 0-12 5.4-12 12v38.7c0 6.6 5.4 12 12 12h.1c6.6 0 12-5.4 12-12v-38.7c0-6.6-5.4-12-12-12h-.1zm8.2 7.2h-.1c-10.2 0-18.4-8.3-18.4-18.4v-38.7c0-10.2 8.3-18.4 18.4-18.4h.1c10.2 0 18.4 8.3 18.4 18.4v38.7c0 10.1-8.3 18.4-18.4 18.4zm-.2-69.2c-6.6 0-12 5.4-12 12v38.7c0 6.6 5.4 12 12 12h.1c6.6 0 12-5.4 12-12v-38.7c0-6.6-5.4-12-12-12h-.1zm-7.8 8.5h-.1c-10.2 0-18.4-8.3-18.4-18.4v-38.7c0-10.2 8.3-18.4 18.4-18.4h.1c10.2 0 18.4 8.3 18.4 18.4v38.7c0 10.2-8.3 18.4-18.4 18.4zm-.2-69.2c-6.6 0-12 5.4-12 12v38.7c0 6.6 5.4 12 12 12h.1c6.6 0 12-5.4 12-12v-38.7c0-6.6-5.4-12-12-12h-.1zm8.2 7.2h-.1c-10.2 0-18.4-8.3-18.4-18.4v-38.7c0-10.2 8.3-18.4 18.4-18.4h.1c10.2 0 18.4 8.3 18.4 18.4v38.7c0 10.2-8.3 18.4-18.4 18.4zm-.2-69.2c-6.6 0-12 5.4-12 12v38.7c0 6.6 5.4 12 12 12h.1c6.6 0 12-5.4 12-12v-38.7c0-6.6-5.4-12-12-12h-.1zm-7.8 8.6h-.1c-10.2 0-18.4-8.3-18.4-18.4v-38.7c0-10.2 8.3-18.4 18.4-18.4h.1c10.2 0 18.4 8.3 18.4 18.4v38.6c0 10.2-8.3 18.5-18.4 18.5zm-.2-69.2c-6.6 0-12 5.4-12 12v38.7c0 6.6 5.4 12 12 12h.1c6.6 0 12-5.4 12-12v-38.7c0-6.6-5.4-12-12-12h-.1zm8.2 7.2h-.1c-10.2 0-18.4-8.3-18.4-18.4v-38.8c0-10.2 8.3-18.4 18.4-18.4h.1c10.2 0 18.4 8.3 18.4 18.4v38.7c0 10.2-8.3 18.5-18.4 18.5zm-.2-69.2c-6.6 0-12 5.4-12 12v38.7c0 6.6 5.4 12 12 12h.1c6.6 0 12-5.4 12-12v-38.7c0-6.6-5.4-12-12-12h-.1z"/></svg>