<?xml version="1.0" encoding="utf-8"?>
<!-- Generator: Adobe Illustrator 18.1.1, SVG Export Plug-In . SVG Version: 6.00 Build 0)  -->
<!DOCTYPE svg PUBLIC "-//W3C//DTD SVG 1.1//EN" "http://www.w3.org/Graphics/SVG/1.1/DTD/svg11.dtd">
<svg version="1.1" id="Layer_1" xmlns="http://www.w3.org/2000/svg" xmlns:xlink="http://www.w3.org/1999/xlink" x="0px" y="0px"
	 viewBox="0 0 560 1161" enable-background="new 0 0 560 1161" xml:space="preserve">
<path fill="#455861" d="M464.5,942.4v73.2c-12,19.6-26.1,32.5-42.2,38.5c-15.1,5.6-27.9,4.1-42.8,2.4c-15.8-1.8-33.4-3.9-54.1,3.6
	c-11.7,4.3-22.8,10.8-31.8,19.5V773.5l95.2-5.9v-18.1l-95.2-5.9v-31.3c13.8-5.9,23.5-19.6,23.5-35.6c0-21.4-17.3-38.7-38.7-38.7
	c-21.4,0-38.7,17.3-38.7,38.7c0,16.1,9.8,29.9,23.8,35.7v31.1l-100.2,5.9v18.1l100.2,5.9v305.8c-10-8.5-20.2-15-31.7-19.2
	c-20.7-7.5-38.6-5.5-54.4-3.6c-14.9,1.7-28.1,3.2-43.2-2.4c-17.5-6.5-32.7-21.2-45.7-43.6v-68.2l-57.3,80.1h36.7
	c15.6,28,35.2,45.8,58.1,54.4c20.5,7.7,38.4,5.6,54.2,3.8c15-1.7,27.9-3.2,43.2,2.4c17.6,6.4,32.6,20.1,44.6,40.6l10.5,18l10.5-18
	c12-20.5,27-34.2,44.6-40.6c15.3-5.6,28.2-4.1,43.2-2.3c15.8,1.8,33.7,3.8,54.2-3.8c23-8.6,42.5-26.4,58.1-54.4h33.7L464.5,942.4z
	 M259,676.7c0-10.7,8.7-19.3,19.3-19.3c10.7,0,19.3,8.7,19.3,19.3c0,4.5-1.6,8.7-4.2,12c-3.5,4.5-9,7.4-15.2,7.4
	c-6,0-11.3-2.7-14.8-6.9C260.7,685.7,259,681.4,259,676.7z"/>
<g>
	<path fill="#455861" d="M278.5,675.2h-0.1c-10.2,0-18.4-8.3-18.4-18.4V618c0-10.2,8.3-18.4,18.4-18.4h0.1
		c10.2,0,18.4,8.3,18.4,18.4v38.7C296.9,666.9,288.6,675.2,278.5,675.2z M278.3,606c-6.6,0-12,5.4-12,12v38.7c0,6.6,5.4,12,12,12
		h0.1c6.6,0,12-5.4,12-12V618c0-6.6-5.4-12-12-12H278.3z"/>
</g>
<g>
	<path fill="#455861" d="M286.5,613.2h-0.1c-10.2,0-18.4-8.3-18.4-18.4V556c0-10.2,8.3-18.4,18.4-18.4h0.1
		c10.2,0,18.4,8.3,18.4,18.4v38.7C304.9,604.9,296.6,613.2,286.5,613.2z M286.3,544c-6.6,0-12,5.4-12,12v38.7c0,6.6,5.4,12,12,12
		h0.1c6.6,0,12-5.4,12-12V556c0-6.6-5.4-12-12-12H286.3z"/>
</g>
<g>
	<path fill="#455861" d="M278.5,552.5h-0.1c-10.2,0-18.4-8.3-18.4-18.4v-38.7c0-10.2,8.3-18.4,18.4-18.4h0.1
		c10.2,0,18.4,8.3,18.4,18.4v38.7C296.9,544.3,288.6,552.5,278.5,552.5z M278.3,483.3c-6.6,0-12,5.4-12,12v38.7c0,6.6,5.4,12,12,12
		h0.1c6.6,0,12-5.4,12-12v-38.7c0-6.6-5.4-12-12-12H278.3z"/>
</g>
<g>
	<path fill="#455861" d="M286.5,490.5h-0.1c-10.2,0-18.4-8.3-18.4-18.4v-38.7c0-10.2,8.3-18.4,18.4-18.4h0.1
		c10.2,0,18.4,8.3,18.4,18.4v38.7C304.9,482.3,296.6,490.5,286.5,490.5z M286.3,421.3c-6.6,0-12,5.4-12,12v38.7c0,6.6,5.4,12,12,12
		h0.1c6.6,0,12-5.4,12-12v-38.7c0-6.6-5.4-12-12-12H286.3z"/>
</g>
<g>
	<path fill="#455861" d="M278.5,429.9h-0.1c-10.2,0-18.4-8.3-18.4-18.4v-38.7c0-10.2,8.3-18.4,18.4-18.4h0.1
		c10.2,0,18.4,8.3,18.4,18.4v38.7C296.9,421.6,288.6,429.9,278.5,429.9z M278.3,360.7c-6.6,0-12,5.4-12,12v38.7c0,6.6,5.4,12,12,12
		h0.1c6.6,0,12-5.4,12-12v-38.7c0-6.6-5.4-12-12-12H278.3z"/>
</g>
<g>
	<path fill="#455861" d="M286.5,367.9h-0.1c-10.2,0-18.4-8.3-18.4-18.4v-38.7c0-10.2,8.3-18.4,18.4-18.4h0.1
		c10.2,0,18.4,8.3,18.4,18.4v38.7C304.9,359.6,296.6,367.9,286.5,367.9z M286.3,298.7c-6.6,0-12,5.4-12,12v38.7c0,6.6,5.4,12,12,12
		h0.1c6.6,0,12-5.4,12-12v-38.7c0-6.6-5.4-12-12-12H286.3z"/>
</g>
<g>
	<path fill="#455861" d="M278.5,307.2h-0.1c-10.2,0-18.4-8.3-18.4-18.4V250c0-10.2,8.3-18.4,18.4-18.4h0.1
		c10.2,0,18.4,8.3,18.4,18.4v38.7C296.9,298.9,288.6,307.2,278.5,307.2z M278.3,238c-6.6,0-12,5.4-12,12v38.7c0,6.6,5.4,12,12,12
		h0.1c6.6,0,12-5.4,12-12V250c0-6.6-5.4-12-12-12H278.3z"/>
</g>
<g>
	<path fill="#455861" d="M286.5,245.2h-0.1c-10.2,0-18.4-8.3-18.4-18.4V188c0-10.2,8.3-18.4,18.4-18.4h0.1
		c10.2,0,18.4,8.3,18.4,18.4v38.7C304.9,236.9,296.6,245.2,286.5,245.2z M286.3,176c-6.6,0-12,5.4-12,12v38.7c0,6.6,5.4,12,12,12
		h0.1c6.6,0,12-5.4,12-12V188c0-6.6-5.4-12-12-12H286.3z"/>
</g>
<g>
	<path fill="#455861" d="M278.5,184.6h-0.1c-10.2,0-18.4-8.3-18.4-18.4v-38.7c0-10.2,8.3-18.4,18.4-18.4h0.1
		c10.2,0,18.4,8.3,18.4,18.4v38.7C296.9,176.3,288.6,184.6,278.5,184.6z M278.3,115.4c-6.6,0-12,5.4-12,12v38.7c0,6.6,5.4,12,12,12
		h0.1c6.6,0,12-5.4,12-12v-38.7c0-6.6-5.4-12-12-12H278.3z"/>
</g>
<g>
	<path fill="#455861" d="M286.5,122.6h-0.1c-10.2,0-18.4-8.3-18.4-18.4V65.4c0-10.2,8.3-18.4,18.4-18.4h0.1
		c10.2,0,18.4,8.3,18.4,18.4v38.7C304.9,114.3,296.6,122.6,286.5,122.6z M286.3,53.4c-6.6,0-12,5.4-12,12v38.7c0,6.6,5.4,12,12,12
		h0.1c6.6,0,12-5.4,12-12V65.4c0-6.6-5.4-12-12-12H286.3z"/>
</g>
</svg>
