<?xml version="1.0" encoding="utf-8"?>
<!-- Generator: Adobe Illustrator 18.1.1, SVG Export Plug-In . SVG Version: 6.00 Build 0)  -->
<!DOCTYPE svg PUBLIC "-//W3C//DTD SVG 1.1//EN" "http://www.w3.org/Graphics/SVG/1.1/DTD/svg11.dtd">
<svg version="1.1" id="Layer_1" xmlns="http://www.w3.org/2000/svg" xmlns:xlink="http://www.w3.org/1999/xlink" x="0px" y="0px"
	 viewBox="0 0 338 350.6" enable-background="new 0 0 338 350.6" xml:space="preserve">
<g>
	<path fill="#003366" d="M169.2,15.7C82.7,15.7,12.3,86,12.3,172.5c0,86.5,70.4,156.8,156.8,156.8c86.5,0,156.8-70.3,156.8-156.8
		C326,86,255.7,15.7,169.2,15.7z M169.2,299.3c-69.9,0-126.8-56.9-126.8-126.8c0-69.9,56.9-126.8,126.8-126.8
		c69.9,0,126.8,56.9,126.8,126.8C296,242.4,239.1,299.3,169.2,299.3z"/>
</g>
<g>
	<path fill="#003366" d="M168.8,95.9l-14.6,73.5l15,71.7l15-72.1L168.8,95.9z M169,223.9l-11.5-54v-0.3h7.7c0-2.2,1.8-4,4-4
		c2.2,0,4,1.8,4,4h7.3L169,223.9z"/>
</g>
<g>
	<g>
		<path fill="#003366" d="M155.9,90.1V52.3h5.3l12.1,19.1c2.8,4.4,5,8.4,6.8,12.3l0.1-0.1c-0.4-5.1-0.6-9.7-0.6-15.6V52.3h4.6v37.8
			h-4.9l-12-19.2c-2.6-4.2-5.2-8.5-7.1-12.6l-0.2,0.1c0.3,4.8,0.4,9.3,0.4,15.6v16.2H155.9z"/>
	</g>
</g>
<g>
	<g>
		<path fill="#003366" d="M158.6,281.3c2.2,1.3,5.4,2.5,8.8,2.5c5,0,7.9-2.6,7.9-6.5c0-3.5-2-5.6-7.1-7.5c-6.2-2.2-10-5.4-10-10.7
			c0-5.9,4.9-10.3,12.2-10.3c3.9,0,6.7,0.9,8.4,1.9l-1.3,4c-1.2-0.7-3.8-1.8-7.2-1.8c-5.2,0-7.1,3.1-7.1,5.7c0,3.5,2.3,5.3,7.5,7.3
			c6.4,2.5,9.7,5.6,9.7,11.1c0,5.8-4.3,10.9-13.3,10.9c-3.6,0-7.6-1.1-9.7-2.4L158.6,281.3z"/>
	</g>
</g>
</svg>
