<?xml version="1.0" encoding="utf-8"?>
<!-- Generator: Adobe Illustrator 18.1.1, SVG Export Plug-In . SVG Version: 6.00 Build 0)  -->
<!DOCTYPE svg PUBLIC "-//W3C//DTD SVG 1.1//EN" "http://www.w3.org/Graphics/SVG/1.1/DTD/svg11.dtd">
<svg version="1.1" id="Layer_1" xmlns="http://www.w3.org/2000/svg" xmlns:xlink="http://www.w3.org/1999/xlink" x="0px" y="0px"
	 viewBox="0 0 314 250" style="enable-background:new 0 0 314 250;" xml:space="preserve">
<style type="text/css">
	.st0{fill:none;stroke:#016699;stroke-width:6;stroke-miterlimit:10;}
	.st1{fill:none;stroke:#016699;stroke-width:2;stroke-miterlimit:10;}
</style>
<path class="st0" d="M177.9,155l-2.4-13l-9.2-1.1l-19-2.2L115,135l-11.3-1.3l-53.2-6.1v9.4c0,36.2,29.4,65.6,65.6,65.6h102.5
	c22.9,0,41.5-24.1,41.5-33.9v-7.2L177.9,155z M225.9,185.7c-4.5,0-8.1-3.6-8.1-8.1c0-4.5,3.6-8.1,8.1-8.1c4.5,0,8.1,3.6,8.1,8.1
	C234,182.1,230.4,185.7,225.9,185.7z"/>
<path class="st0" d="M234,177.6c0,4.5-3.6,8.1-8.1,8.1c-4.5,0-8.1-3.6-8.1-8.1c0-4.5,3.6-8.1,8.1-8.1
	C230.4,169.5,234,173.2,234,177.6z"/>
<path class="st1" d="M234,177.6c0,4.5-3.6,8.1-8.1,8.1c-4.5,0-8.1-3.6-8.1-8.1c0-4.5,3.6-8.1,8.1-8.1
	C230.4,169.5,234,173.2,234,177.6z"/>
<polygon class="st0" points="147.3,100.1 147.3,138.8 115,135 115,100.1 "/>
<polygon class="st0" points="115,100.1 115,135 103.7,133.7 103.7,100.1 "/>
<polygon class="st0" points="166.3,81.6 166.3,140.9 147.3,138.8 147.3,81.6 "/>
<rect x="137.5" y="60.7" class="st0" width="38.7" height="21"/>
<rect x="89.7" y="90.6" class="st0" width="57.6" height="9.5"/>
<g>
</g>
<g>
</g>
<g>
</g>
<g>
</g>
<g>
</g>
<g>
</g>
</svg>
