<?xml version="1.0" encoding="utf-8"?>
<!-- Generator: Adobe Illustrator 18.1.1, SVG Export Plug-In . SVG Version: 6.00 Build 0)  -->
<!DOCTYPE svg PUBLIC "-//W3C//DTD SVG 1.1//EN" "http://www.w3.org/Graphics/SVG/1.1/DTD/svg11.dtd">
<svg version="1.1" id="Layer_1" xmlns="http://www.w3.org/2000/svg" xmlns:xlink="http://www.w3.org/1999/xlink" x="0px" y="0px"
	 viewBox="0 0 240 377" style="enable-background:new 0 0 240 377;" xml:space="preserve">
<style type="text/css">
	.st0{fill:#016699;}
</style>
<path class="st0" d="M194.3,79C186.9,66.5,176.5,56,164,48.7l0-19.1H76v19.1C63.5,56,53.1,66.5,45.7,78.9h-12v88h12
	c7.4,12.5,17.8,22.9,30.3,30.3l0,16.3h88l0-16.3c12.5-7.4,22.9-17.8,30.3-30.3h12V79H194.3z M158.6,191.9l-1.9,1l0,13.2H83.3l0-13.2
	l-1.9-1c-12.8-7.1-23.3-17.7-30.4-30.4l-1-1.9h-9V86.3h9l1-1.9C58.2,71.6,68.7,61.1,81.5,54l1.9-1V36.8h73.3l0,16.1l1.9,1
	c12.8,7.1,23.3,17.7,30.4,30.4l1,1.9h9v73.3h-9l-1,1.9C181.8,174.3,171.3,184.8,158.6,191.9z"/>
<g>
	<path class="st0" d="M120,176.2c-30.1,0-54.6-24.5-54.6-54.6S89.9,66.9,120,66.9c30.1,0,54.7,24.5,54.7,54.6S150.1,176.2,120,176.2
		z M120,73c-26.7,0-48.5,21.8-48.5,48.5S93.3,170,120,170s48.5-21.8,48.5-48.5S146.7,73,120,73z"/>
	<path class="st0" d="M120,174.7c-29.3,0-53.2-23.9-53.2-53.2S90.7,68.3,120,68.3c29.3,0,53.2,23.9,53.2,53.2S149.3,174.7,120,174.7
		z M120,71.6c-27.5,0-50,22.4-50,50s22.4,50,50,50c27.5,0,50-22.4,50-50S147.5,71.6,120,71.6z"/>
</g>
<path class="st0" d="M37.3,207.3v81.1c0,44.7,36.4,81.1,81.1,81.1c44.7,0,81.1-36.4,81.1-81.1v-81.1H37.3z M192.1,214.7v73.7
	c0,40.7-33.1,73.7-73.7,73.7c-40.7,0-73.7-33.1-73.7-73.7v-73.7H192.1z"/>
<g>
	<path class="st0" d="M197,203.3h-12.6v-12.6H197V203.3z M187.4,200.3h6.6v-6.6h-6.6V200.3z"/>
</g>
<g>
	<path class="st0" d="M52.1,203.3H39.4v-12.6h12.6V203.3z M42.4,200.3h6.6v-6.6h-6.6V200.3z"/>
</g>
<g>
	<path class="st0" d="M120,81.7c-22,0-39.8,17.9-39.8,39.8S98,161.3,120,161.3c22,0,39.8-17.9,39.8-39.8S142,81.7,120,81.7z
		 M107.7,133.8v-24.5h24.5v24.5H107.7z M135.3,109.3h19.5c1.4,3.8,2.1,8,2.1,12.3c0,4.3-0.7,8.4-2.1,12.3h-19.5V109.3z M153.5,106.3
		h-18.3v0V88C143.3,91.7,149.8,98.2,153.5,106.3z M132.3,86.8v19.5h-24.5V86.8c3.8-1.4,8-2.1,12.3-2.1
		C124.3,84.7,128.4,85.4,132.3,86.8z M104.7,88v18.3H86.5C90.2,98.2,96.7,91.7,104.7,88z M85.3,109.3h19.5v24.5H85.3
		c-1.4-3.8-2.1-8-2.1-12.3C83.2,117.2,83.9,113.1,85.3,109.3z M86.5,136.8h18.2V155C96.7,151.3,90.2,144.8,86.5,136.8z M107.7,156.2
		v-19.5h24.5v19.5c-3.8,1.4-8,2.1-12.3,2.1C115.7,158.3,111.6,157.6,107.7,156.2z M135.3,155v-18.2h18.3
		C149.8,144.8,143.3,151.3,135.3,155z"/>
</g>
<path class="st0" d="M123.9,279.8h-7.6c-22,0-39.8-17.8-39.8-39.8v-27.4h87.3V240C163.8,262,145.9,279.8,123.9,279.8z"/>
<g>
</g>
<g>
</g>
<g>
</g>
<g>
</g>
<g>
</g>
<g>
</g>
</svg>
