<?xml version="1.0" encoding="utf-8"?>
<!-- Generator: Adobe Illustrator 18.1.1, SVG Export Plug-In . SVG Version: 6.00 Build 0)  -->
<!DOCTYPE svg PUBLIC "-//W3C//DTD SVG 1.1//EN" "http://www.w3.org/Graphics/SVG/1.1/DTD/svg11.dtd">
<svg version="1.1" id="Layer_1" xmlns="http://www.w3.org/2000/svg" xmlns:xlink="http://www.w3.org/1999/xlink" x="0px" y="0px"
	 width="1107.6px" height="795.4px" viewBox="0 0 1107.6 795.4" enable-background="new 0 0 1107.6 795.4" xml:space="preserve">
<path fill="#FFFFFF" stroke="#000000" stroke-width="3" stroke-miterlimit="10" d="M65.2,351l-51.1-27.9c-5.9-3.2-9.6-9.4-9.6-16.2
	v0c0-14,15-22.9,27.3-16.2l51.1,27.9c5.9,3.2,9.6,9.4,9.6,16.2v0C92.5,348.8,77.5,357.7,65.2,351z"/>
<path fill="#FFFFFF" stroke="#000000" stroke-width="3" stroke-miterlimit="10" d="M65.2,310l-51.1-27.9c-5.9-3.2-9.6-9.4-9.6-16.2
	v0c0-14,15-22.9,27.3-16.2l51.1,27.9c5.9,3.2,9.6,9.4,9.6,16.2v0C92.5,307.8,77.5,316.7,65.2,310z"/>
<path fill="#FFFFFF" stroke="#000000" stroke-width="3" stroke-miterlimit="10" d="M65.2,269l-51.1-27.9c-5.9-3.2-9.6-9.4-9.6-16.2
	v0c0-14,15-22.9,27.3-16.2l51.1,27.9c5.9,3.2,9.6,9.4,9.6,16.2v0C92.5,266.8,77.5,275.7,65.2,269z"/>
<path fill="#FFFFFF" stroke="#000000" stroke-width="3" stroke-miterlimit="10" d="M65.2,228l-51.1-27.9c-5.9-3.2-9.6-9.4-9.6-16.2
	v0c0-14,15-22.9,27.3-16.2l51.1,27.9c5.9,3.2,9.6,9.4,9.6,16.2v0C92.5,225.8,77.5,234.7,65.2,228z"/>
<path fill="#FFFFFF" stroke="#000000" stroke-width="3" stroke-miterlimit="10" d="M65.2,187l-51.1-27.9c-5.9-3.2-9.6-9.4-9.6-16.2
	v0c0-14,15-22.9,27.3-16.2l51.1,27.9c5.9,3.2,9.6,9.4,9.6,16.2v0C92.5,184.8,77.5,193.7,65.2,187z"/>
<path fill="#FFFFFF" stroke="#000000" stroke-width="3" stroke-miterlimit="10" d="M65.2,146l-51.1-27.9c-5.9-3.2-9.6-9.4-9.6-16.2
	v0c0-14,15-22.9,27.3-16.2l51.1,27.9c5.9,3.2,9.6,9.4,9.6,16.2v0C92.5,143.8,77.5,152.7,65.2,146z"/>
<path fill="#FFFFFF" stroke="#000000" stroke-width="3" stroke-miterlimit="10" d="M65.2,105L14.1,77.1C8.2,73.9,4.5,67.7,4.5,61v0
	c0-14,15-22.9,27.3-16.2l51.1,27.9c5.9,3.2,9.6,9.4,9.6,16.2v0C92.5,102.8,77.5,111.7,65.2,105z"/>
<path fill="#FFFFFF" stroke="#000000" stroke-width="3" stroke-miterlimit="10" d="M65.2,64L14.1,36.1C8.2,32.9,4.5,26.7,4.5,20v0
	c0-14,15-22.9,27.3-16.2l51.1,27.9c5.9,3.2,9.6,9.4,9.6,16.2v0C92.5,61.8,77.5,70.7,65.2,64z"/>
<path fill="#FFFFFF" stroke="#000000" stroke-width="3" stroke-miterlimit="10" d="M65.2,680l-51.1-27.9c-5.9-3.2-9.6-9.4-9.6-16.2
	l0,0c0-14,15-22.9,27.3-16.2l51.1,27.9c5.9,3.2,9.6,9.4,9.6,16.2v0C92.5,677.8,77.5,686.7,65.2,680z"/>
<path fill="#FFFFFF" stroke="#000000" stroke-width="3" stroke-miterlimit="10" d="M65.2,724.1l-51.1-27.9
	c-5.9-3.2-9.6-9.4-9.6-16.2v0c0-14,15-22.9,27.3-16.2l51.1,27.9c5.9,3.2,9.6,9.4,9.6,16.2l0,0C92.5,721.9,77.5,730.8,65.2,724.1z"/>
<path fill="#FFFFFF" stroke="#000000" stroke-width="3" stroke-miterlimit="10" d="M65.2,768.1l-51.1-27.9
	c-5.9-3.2-9.6-9.4-9.6-16.2v0c0-14,15-22.9,27.3-16.2l51.1,27.9c5.9,3.2,9.6,9.4,9.6,16.2v0C92.5,766,77.5,774.8,65.2,768.1z"/>
<path fill="#FFFFFF" stroke="#000000" stroke-width="3" stroke-miterlimit="10" d="M65.2,639l-51.1-27.9c-5.9-3.2-9.6-9.4-9.6-16.2
	l0,0c0-14,15-22.9,27.3-16.2l51.1,27.9c5.9,3.2,9.6,9.4,9.6,16.2v0C92.5,636.8,77.5,645.7,65.2,639z"/>
<path fill="#FFFFFF" stroke="#000000" stroke-width="3" stroke-miterlimit="10" d="M65.2,598l-51.1-27.9c-5.9-3.2-9.6-9.4-9.6-16.2
	l0,0c0-14,15-22.9,27.3-16.2l51.1,27.9c5.9,3.2,9.6,9.4,9.6,16.2v0C92.5,595.8,77.5,604.7,65.2,598z"/>
<path fill="#FFFFFF" stroke="#000000" stroke-width="3" stroke-miterlimit="10" d="M65.2,557l-51.1-27.9c-5.9-3.2-9.6-9.4-9.6-16.2
	l0,0c0-14,15-22.9,27.3-16.2l51.1,27.9c5.9,3.2,9.6,9.4,9.6,16.2v0C92.5,554.8,77.5,563.7,65.2,557z"/>
<path fill="#FFFFFF" stroke="#000000" stroke-width="3" stroke-miterlimit="10" d="M65.2,516l-51.1-27.9c-5.9-3.2-9.6-9.4-9.6-16.2
	v0c0-14,15-22.9,27.3-16.2l51.1,27.9c5.9,3.2,9.6,9.4,9.6,16.2v0C92.5,513.8,77.5,522.7,65.2,516z"/>
<path fill="#FFFFFF" stroke="#000000" stroke-width="3" stroke-miterlimit="10" d="M65.2,475l-51.1-27.9c-5.9-3.2-9.6-9.4-9.6-16.2
	v0c0-14,15-22.9,27.3-16.2l51.1,27.9c5.9,3.2,9.6,9.4,9.6,16.2v0C92.5,472.8,77.5,481.7,65.2,475z"/>
<path fill="#FFFFFF" stroke="#000000" stroke-width="3" stroke-miterlimit="10" d="M65.2,434l-51.1-27.9c-5.9-3.2-9.6-9.4-9.6-16.2
	v0c0-14,15-22.9,27.3-16.2l51.1,27.9c5.9,3.2,9.6,9.4,9.6,16.2v0C92.5,431.8,77.5,440.7,65.2,434z"/>
<path fill="#FFFFFF" stroke="#000000" stroke-width="3" stroke-miterlimit="10" d="M65.2,393l-51.1-27.9c-5.9-3.2-9.6-9.4-9.6-16.2
	v0c0-14,15-22.9,27.3-16.2l51.1,27.9c5.9,3.2,9.6,9.4,9.6,16.2v0C92.5,390.8,77.5,399.7,65.2,393z"/>
<path fill="#FFFFFF" stroke="#000000" stroke-width="3" stroke-miterlimit="10" d="M1073.2,351l-51.1-27.9
	c-5.9-3.2-9.6-9.4-9.6-16.2v0c0-14,15-22.9,27.3-16.2l51.1,27.9c5.9,3.2,9.6,9.4,9.6,16.2v0C1100.5,348.8,1085.5,357.7,1073.2,351z"
	/>
<path fill="#FFFFFF" stroke="#000000" stroke-width="3" stroke-miterlimit="10" d="M1073.2,310l-51.1-27.9
	c-5.9-3.2-9.6-9.4-9.6-16.2v0c0-14,15-22.9,27.3-16.2l51.1,27.9c5.9,3.2,9.6,9.4,9.6,16.2v0C1100.5,307.8,1085.5,316.7,1073.2,310z"
	/>
<path fill="#FFFFFF" stroke="#000000" stroke-width="3" stroke-miterlimit="10" d="M1073.2,269l-51.1-27.9
	c-5.9-3.2-9.6-9.4-9.6-16.2v0c0-14,15-22.9,27.3-16.2l51.1,27.9c5.9,3.2,9.6,9.4,9.6,16.2v0C1100.5,266.8,1085.5,275.7,1073.2,269z"
	/>
<path fill="#FFFFFF" stroke="#000000" stroke-width="3" stroke-miterlimit="10" d="M1073.2,228l-51.1-27.9
	c-5.9-3.2-9.6-9.4-9.6-16.2v0c0-14,15-22.9,27.3-16.2l51.1,27.9c5.9,3.2,9.6,9.4,9.6,16.2v0C1100.5,225.8,1085.5,234.7,1073.2,228z"
	/>
<path fill="#FFFFFF" stroke="#000000" stroke-width="3" stroke-miterlimit="10" d="M1073.2,187l-51.1-27.9
	c-5.9-3.2-9.6-9.4-9.6-16.2v0c0-14,15-22.9,27.3-16.2l51.1,27.9c5.9,3.2,9.6,9.4,9.6,16.2v0C1100.5,184.8,1085.5,193.7,1073.2,187z"
	/>
<path fill="#FFFFFF" stroke="#000000" stroke-width="3" stroke-miterlimit="10" d="M1073.2,146l-51.1-27.9
	c-5.9-3.2-9.6-9.4-9.6-16.2v0c0-14,15-22.9,27.3-16.2l51.1,27.9c5.9,3.2,9.6,9.4,9.6,16.2v0C1100.5,143.8,1085.5,152.7,1073.2,146z"
	/>
<path fill="#FFFFFF" stroke="#000000" stroke-width="3" stroke-miterlimit="10" d="M1073.2,105l-51.1-27.9
	c-5.9-3.2-9.6-9.4-9.6-16.2v0c0-14,15-22.9,27.3-16.2l51.1,27.9c5.9,3.2,9.6,9.4,9.6,16.2v0C1100.5,102.8,1085.5,111.7,1073.2,105z"
	/>
<path fill="#FFFFFF" stroke="#000000" stroke-width="3" stroke-miterlimit="10" d="M1073.2,64l-51.1-27.9c-5.9-3.2-9.6-9.4-9.6-16.2
	v0c0-14,15-22.9,27.3-16.2l51.1,27.9c5.9,3.2,9.6,9.4,9.6,16.2v0C1100.5,61.8,1085.5,70.7,1073.2,64z"/>
<path fill="#FFFFFF" stroke="#000000" stroke-width="3" stroke-miterlimit="10" d="M1073.2,680l-51.1-27.9
	c-5.9-3.2-9.6-9.4-9.6-16.2l0,0c0-14,15-22.9,27.3-16.2l51.1,27.9c5.9,3.2,9.6,9.4,9.6,16.2v0C1100.5,677.8,1085.5,686.7,1073.2,680
	z"/>
<path fill="#FFFFFF" stroke="#000000" stroke-width="3" stroke-miterlimit="10" d="M1073.2,724.1l-51.1-27.9
	c-5.9-3.2-9.6-9.4-9.6-16.2v0c0-14,15-22.9,27.3-16.2l51.1,27.9c5.9,3.2,9.6,9.4,9.6,16.2l0,0
	C1100.5,721.9,1085.5,730.8,1073.2,724.1z"/>
<path fill="#FFFFFF" stroke="#000000" stroke-width="3" stroke-miterlimit="10" d="M1073.2,768.1l-51.1-27.9
	c-5.9-3.2-9.6-9.4-9.6-16.2v0c0-14,15-22.9,27.3-16.2l51.1,27.9c5.9,3.2,9.6,9.4,9.6,16.2v0C1100.5,766,1085.5,774.8,1073.2,768.1z"
	/>
<path fill="#FFFFFF" stroke="#000000" stroke-width="3" stroke-miterlimit="10" d="M1073.2,639l-51.1-27.9
	c-5.9-3.2-9.6-9.4-9.6-16.2l0,0c0-14,15-22.9,27.3-16.2l51.1,27.9c5.9,3.2,9.6,9.4,9.6,16.2v0C1100.5,636.8,1085.5,645.7,1073.2,639
	z"/>
<path fill="#FFFFFF" stroke="#000000" stroke-width="3" stroke-miterlimit="10" d="M1073.2,598l-51.1-27.9
	c-5.9-3.2-9.6-9.4-9.6-16.2l0,0c0-14,15-22.9,27.3-16.2l51.1,27.9c5.9,3.2,9.6,9.4,9.6,16.2v0C1100.5,595.8,1085.5,604.7,1073.2,598
	z"/>
<path fill="#FFFFFF" stroke="#000000" stroke-width="3" stroke-miterlimit="10" d="M1073.2,557l-51.1-27.9
	c-5.9-3.2-9.6-9.4-9.6-16.2l0,0c0-14,15-22.9,27.3-16.2l51.1,27.9c5.9,3.2,9.6,9.4,9.6,16.2v0C1100.5,554.8,1085.5,563.7,1073.2,557
	z"/>
<path fill="#FFFFFF" stroke="#000000" stroke-width="3" stroke-miterlimit="10" d="M1073.2,516l-51.1-27.9
	c-5.9-3.2-9.6-9.4-9.6-16.2v0c0-14,15-22.9,27.3-16.2l51.1,27.9c5.9,3.2,9.6,9.4,9.6,16.2v0C1100.5,513.8,1085.5,522.7,1073.2,516z"
	/>
<path fill="#FFFFFF" stroke="#000000" stroke-width="3" stroke-miterlimit="10" d="M1073.2,475l-51.1-27.9
	c-5.9-3.2-9.6-9.4-9.6-16.2v0c0-14,15-22.9,27.3-16.2l51.1,27.9c5.9,3.2,9.6,9.4,9.6,16.2v0C1100.5,472.8,1085.5,481.7,1073.2,475z"
	/>
<path fill="#FFFFFF" stroke="#000000" stroke-width="3" stroke-miterlimit="10" d="M1073.2,434l-51.1-27.9
	c-5.9-3.2-9.6-9.4-9.6-16.2v0c0-14,15-22.9,27.3-16.2l51.1,27.9c5.9,3.2,9.6,9.4,9.6,16.2v0C1100.5,431.8,1085.5,440.7,1073.2,434z"
	/>
<path fill="#FFFFFF" stroke="#000000" stroke-width="3" stroke-miterlimit="10" d="M1073.2,393l-51.1-27.9
	c-5.9-3.2-9.6-9.4-9.6-16.2v0c0-14,15-22.9,27.3-16.2l51.1,27.9c5.9,3.2,9.6,9.4,9.6,16.2v0C1100.5,390.8,1085.5,399.7,1073.2,393z"
	/>
<path fill="#FFFFFF" stroke="#000000" stroke-width="3" stroke-miterlimit="10" d="M642.6,733.2l-27.9,51.1
	c-3.2,5.9-9.4,9.6-16.2,9.6l0,0c-14,0-22.9-15-16.2-27.3l27.9-51.1c3.2-5.9,9.4-9.6,16.2-9.6h0C640.4,705.9,649.3,720.9,642.6,733.2
	z"/>
<path fill="#FFFFFF" stroke="#000000" stroke-width="3" stroke-miterlimit="10" d="M601.6,733.2l-27.9,51.1
	c-3.2,5.9-9.4,9.6-16.2,9.6l0,0c-14,0-22.9-15-16.2-27.3l27.9-51.1c3.2-5.9,9.4-9.6,16.2-9.6h0C599.4,705.9,608.3,720.9,601.6,733.2
	z"/>
<path fill="#FFFFFF" stroke="#000000" stroke-width="3" stroke-miterlimit="10" d="M560.6,733.2l-27.9,51.1
	c-3.2,5.9-9.4,9.6-16.2,9.6l0,0c-14,0-22.9-15-16.2-27.3l27.9-51.1c3.2-5.9,9.4-9.6,16.2-9.6h0C558.4,705.9,567.3,720.9,560.6,733.2
	z"/>
<path fill="#FFFFFF" stroke="#000000" stroke-width="3" stroke-miterlimit="10" d="M519.6,733.2l-27.9,51.1
	c-3.2,5.9-9.4,9.6-16.2,9.6h0c-14,0-22.9-15-16.2-27.3l27.9-51.1c3.2-5.9,9.4-9.6,16.2-9.6h0C517.4,705.9,526.3,720.9,519.6,733.2z"
	/>
<path fill="#FFFFFF" stroke="#000000" stroke-width="3" stroke-miterlimit="10" d="M478.6,733.2l-27.9,51.1
	c-3.2,5.9-9.4,9.6-16.2,9.6h0c-14,0-22.9-15-16.2-27.3l27.9-51.1c3.2-5.9,9.4-9.6,16.2-9.6h0C476.4,705.9,485.3,720.9,478.6,733.2z"
	/>
<path fill="#FFFFFF" stroke="#000000" stroke-width="3" stroke-miterlimit="10" d="M437.6,733.2l-27.9,51.1
	c-3.2,5.9-9.4,9.6-16.2,9.6h0c-14,0-22.9-15-16.2-27.3l27.9-51.1c3.2-5.9,9.4-9.6,16.2-9.6h0C435.4,705.9,444.3,720.9,437.6,733.2z"
	/>
<path fill="#FFFFFF" stroke="#000000" stroke-width="3" stroke-miterlimit="10" d="M396.6,733.2l-27.9,51.1
	c-3.2,5.9-9.4,9.6-16.2,9.6h0c-14,0-22.9-15-16.2-27.3l27.9-51.1c3.2-5.9,9.4-9.6,16.2-9.6h0C394.4,705.9,403.3,720.9,396.6,733.2z"
	/>
<path fill="#FFFFFF" stroke="#000000" stroke-width="3" stroke-miterlimit="10" d="M355.6,733.2l-27.9,51.1
	c-3.2,5.9-9.4,9.6-16.2,9.6h0c-14,0-22.9-15-16.2-27.3l27.9-51.1c3.2-5.9,9.4-9.6,16.2-9.6h0C353.4,705.9,362.3,720.9,355.6,733.2z"
	/>
<path fill="#FFFFFF" stroke="#000000" stroke-width="3" stroke-miterlimit="10" d="M314.6,733.2l-27.9,51.1
	c-3.2,5.9-9.4,9.6-16.2,9.6h0c-14,0-22.9-15-16.2-27.3l27.9-51.1c3.2-5.9,9.4-9.6,16.2-9.6h0C312.4,705.9,321.3,720.9,314.6,733.2z"
	/>
<path fill="#FFFFFF" stroke="#000000" stroke-width="3" stroke-miterlimit="10" d="M273.6,733.2l-27.9,51.1
	c-3.2,5.9-9.4,9.6-16.2,9.6h0c-14,0-22.9-15-16.2-27.3l27.9-51.1c3.2-5.9,9.4-9.6,16.2-9.6h0C271.4,705.9,280.3,720.9,273.6,733.2z"
	/>
<path fill="#FFFFFF" stroke="#000000" stroke-width="3" stroke-miterlimit="10" d="M232.6,733.2l-27.9,51.1
	c-3.2,5.9-9.4,9.6-16.2,9.6h0c-14,0-22.9-15-16.2-27.3l27.9-51.1c3.2-5.9,9.4-9.6,16.2-9.6h0C230.4,705.9,239.3,720.9,232.6,733.2z"
	/>
<path fill="#FFFFFF" stroke="#000000" stroke-width="3" stroke-miterlimit="10" d="M191.6,733.2l-27.9,51.1
	c-3.2,5.9-9.4,9.6-16.2,9.6h0c-14,0-22.9-15-16.2-27.3l27.9-51.1c3.2-5.9,9.4-9.6,16.2-9.6h0C189.4,705.9,198.3,720.9,191.6,733.2z"
	/>
<path fill="#FFFFFF" stroke="#000000" stroke-width="3" stroke-miterlimit="10" d="M150.6,733.2l-27.9,51.1
	c-3.2,5.9-9.4,9.6-16.2,9.6h0c-14,0-22.9-15-16.2-27.3l27.9-51.1c3.2-5.9,9.4-9.6,16.2-9.6h0C148.4,705.9,157.3,720.9,150.6,733.2z"
	/>
<path fill="#FFFFFF" stroke="#000000" stroke-width="3" stroke-miterlimit="10" d="M108.6,733.2l-27.9,51.1
	c-3.2,5.9-9.4,9.6-16.2,9.6h0c-14,0-22.9-15-16.2-27.3l27.9-51.1c3.2-5.9,9.4-9.6,16.2-9.6h0C106.4,705.9,115.3,720.9,108.6,733.2z"
	/>
<path fill="#FFFFFF" stroke="#000000" stroke-width="3" stroke-miterlimit="10" d="M67.6,733.2l-27.9,51.1
	c-3.2,5.9-9.4,9.6-16.2,9.6h0c-14,0-22.9-15-16.2-27.3l27.9-51.1c3.2-5.9,9.4-9.6,16.2-9.6h0C65.4,705.9,74.3,720.9,67.6,733.2z"/>
<path fill="#FFFFFF" stroke="#000000" stroke-width="3" stroke-miterlimit="10" d="M971.6,733.2l-27.9,51.1
	c-3.2,5.9-9.4,9.6-16.2,9.6l0,0c-14,0-22.9-15-16.2-27.3l27.9-51.1c3.2-5.9,9.4-9.6,16.2-9.6h0C969.4,705.9,978.3,720.9,971.6,733.2
	z"/>
<path fill="#FFFFFF" stroke="#000000" stroke-width="3" stroke-miterlimit="10" d="M1015.7,733.2l-27.9,51.1
	c-3.2,5.9-9.4,9.6-16.2,9.6l0,0c-14,0-22.9-15-16.2-27.3l27.9-51.1c3.2-5.9,9.4-9.6,16.2-9.6l0,0
	C1013.5,705.9,1022.4,720.9,1015.7,733.2z"/>
<path fill="#FFFFFF" stroke="#000000" stroke-width="3" stroke-miterlimit="10" d="M1059.7,733.2l-27.9,51.1
	c-3.2,5.9-9.4,9.6-16.2,9.6h0c-14,0-22.9-15-16.2-27.3l27.9-51.1c3.2-5.9,9.4-9.6,16.2-9.6h0
	C1057.5,705.9,1066.4,720.9,1059.7,733.2z"/>
<path fill="#FFFFFF" stroke="#000000" stroke-width="3" stroke-miterlimit="10" d="M1103.8,733.2l-27.9,51.1
	c-3.2,5.9-9.4,9.6-16.2,9.6l0,0c-14,0-22.9-15-16.2-27.3l27.9-51.1c3.2-5.9,9.4-9.6,16.2-9.6l0,0
	C1101.6,705.9,1110.5,720.9,1103.8,733.2z"/>
<path fill="#FFFFFF" stroke="#000000" stroke-width="3" stroke-miterlimit="10" d="M930.6,733.2l-27.9,51.1
	c-3.2,5.9-9.4,9.6-16.2,9.6l0,0c-14,0-22.9-15-16.2-27.3l27.9-51.1c3.2-5.9,9.4-9.6,16.2-9.6h0C928.4,705.9,937.3,720.9,930.6,733.2
	z"/>
<path fill="#FFFFFF" stroke="#000000" stroke-width="3" stroke-miterlimit="10" d="M889.6,733.2l-27.9,51.1
	c-3.2,5.9-9.4,9.6-16.2,9.6l0,0c-14,0-22.9-15-16.2-27.3l27.9-51.1c3.2-5.9,9.4-9.6,16.2-9.6h0C887.4,705.9,896.3,720.9,889.6,733.2
	z"/>
<path fill="#FFFFFF" stroke="#000000" stroke-width="3" stroke-miterlimit="10" d="M848.6,733.2l-27.9,51.1
	c-3.2,5.9-9.4,9.6-16.2,9.6l0,0c-14,0-22.9-15-16.2-27.3l27.9-51.1c3.2-5.9,9.4-9.6,16.2-9.6h0C846.4,705.9,855.3,720.9,848.6,733.2
	z"/>
<path fill="#FFFFFF" stroke="#000000" stroke-width="3" stroke-miterlimit="10" d="M807.6,733.2l-27.9,51.1
	c-3.2,5.9-9.4,9.6-16.2,9.6l0,0c-14,0-22.9-15-16.2-27.3l27.9-51.1c3.2-5.9,9.4-9.6,16.2-9.6h0C805.4,705.9,814.3,720.9,807.6,733.2
	z"/>
<path fill="#FFFFFF" stroke="#000000" stroke-width="3" stroke-miterlimit="10" d="M766.6,733.2l-27.9,51.1
	c-3.2,5.9-9.4,9.6-16.2,9.6l0,0c-14,0-22.9-15-16.2-27.3l27.9-51.1c3.2-5.9,9.4-9.6,16.2-9.6h0C764.4,705.9,773.3,720.9,766.6,733.2
	z"/>
<path fill="#FFFFFF" stroke="#000000" stroke-width="3" stroke-miterlimit="10" d="M725.6,733.2l-27.9,51.1
	c-3.2,5.9-9.4,9.6-16.2,9.6l0,0c-14,0-22.9-15-16.2-27.3l27.9-51.1c3.2-5.9,9.4-9.6,16.2-9.6h0C723.4,705.9,732.3,720.9,725.6,733.2
	z"/>
<path fill="#FFFFFF" stroke="#000000" stroke-width="3" stroke-miterlimit="10" d="M684.6,733.2l-27.9,51.1
	c-3.2,5.9-9.4,9.6-16.2,9.6l0,0c-14,0-22.9-15-16.2-27.3l27.9-51.1c3.2-5.9,9.4-9.6,16.2-9.6h0C682.4,705.9,691.3,720.9,684.6,733.2
	z"/>
<path fill="#FFFFFF" stroke="#000000" stroke-width="3" stroke-miterlimit="10" d="M639,29.2l-27.9,51.1c-3.2,5.9-9.4,9.6-16.2,9.6
	h0c-14,0-22.9-15-16.2-27.3l27.9-51.1c3.2-5.9,9.4-9.6,16.2-9.6l0,0C636.8,1.9,645.7,16.9,639,29.2z"/>
<path fill="#FFFFFF" stroke="#000000" stroke-width="3" stroke-miterlimit="10" d="M598,29.2l-27.9,51.1c-3.2,5.9-9.4,9.6-16.2,9.6
	h0c-14,0-22.9-15-16.2-27.3l27.9-51.1c3.2-5.9,9.4-9.6,16.2-9.6l0,0C595.8,1.9,604.7,16.9,598,29.2z"/>
<path fill="#FFFFFF" stroke="#000000" stroke-width="3" stroke-miterlimit="10" d="M557,29.2l-27.9,51.1c-3.2,5.9-9.4,9.6-16.2,9.6
	h0c-14,0-22.9-15-16.2-27.3l27.9-51.1c3.2-5.9,9.4-9.6,16.2-9.6l0,0C554.8,1.9,563.7,16.9,557,29.2z"/>
<path fill="#FFFFFF" stroke="#000000" stroke-width="3" stroke-miterlimit="10" d="M516,29.2l-27.9,51.1c-3.2,5.9-9.4,9.6-16.2,9.6
	h0c-14,0-22.9-15-16.2-27.3l27.9-51.1c3.2-5.9,9.4-9.6,16.2-9.6h0C513.8,1.9,522.7,16.9,516,29.2z"/>
<path fill="#FFFFFF" stroke="#000000" stroke-width="3" stroke-miterlimit="10" d="M475,29.2l-27.9,51.1c-3.2,5.9-9.4,9.6-16.2,9.6
	h0c-14,0-22.9-15-16.2-27.3l27.9-51.1c3.2-5.9,9.4-9.6,16.2-9.6h0C472.8,1.9,481.7,16.9,475,29.2z"/>
<path fill="#FFFFFF" stroke="#000000" stroke-width="3" stroke-miterlimit="10" d="M434,29.2l-27.9,51.1c-3.2,5.9-9.4,9.6-16.2,9.6
	h0c-14,0-22.9-15-16.2-27.3l27.9-51.1c3.2-5.9,9.4-9.6,16.2-9.6h0C431.8,1.9,440.7,16.9,434,29.2z"/>
<path fill="#FFFFFF" stroke="#000000" stroke-width="3" stroke-miterlimit="10" d="M393,29.2l-27.9,51.1c-3.2,5.9-9.4,9.6-16.2,9.6
	h0c-14,0-22.9-15-16.2-27.3l27.9-51.1c3.2-5.9,9.4-9.6,16.2-9.6h0C390.8,1.9,399.7,16.9,393,29.2z"/>
<path fill="#FFFFFF" stroke="#000000" stroke-width="3" stroke-miterlimit="10" d="M352,29.2l-27.9,51.1c-3.2,5.9-9.4,9.6-16.2,9.6
	h0c-14,0-22.9-15-16.2-27.3l27.9-51.1c3.2-5.9,9.4-9.6,16.2-9.6h0C349.8,1.9,358.7,16.9,352,29.2z"/>
<path fill="#FFFFFF" stroke="#000000" stroke-width="3" stroke-miterlimit="10" d="M311,29.2l-27.9,51.1c-3.2,5.9-9.4,9.6-16.2,9.6
	h0c-14,0-22.9-15-16.2-27.3l27.9-51.1c3.2-5.9,9.4-9.6,16.2-9.6h0C308.8,1.9,317.7,16.9,311,29.2z"/>
<path fill="#FFFFFF" stroke="#000000" stroke-width="3" stroke-miterlimit="10" d="M270,29.2l-27.9,51.1c-3.2,5.9-9.4,9.6-16.2,9.6
	h0c-14,0-22.9-15-16.2-27.3l27.9-51.1c3.2-5.9,9.4-9.6,16.2-9.6h0C267.8,1.9,276.7,16.9,270,29.2z"/>
<path fill="#FFFFFF" stroke="#000000" stroke-width="3" stroke-miterlimit="10" d="M229,29.2l-27.9,51.1c-3.2,5.9-9.4,9.6-16.2,9.6
	h0c-14,0-22.9-15-16.2-27.3l27.9-51.1c3.2-5.9,9.4-9.6,16.2-9.6h0C226.8,1.9,235.7,16.9,229,29.2z"/>
<path fill="#FFFFFF" stroke="#000000" stroke-width="3" stroke-miterlimit="10" d="M188,29.2l-27.9,51.1c-3.2,5.9-9.4,9.6-16.2,9.6
	h0c-14,0-22.9-15-16.2-27.3l27.9-51.1c3.2-5.9,9.4-9.6,16.2-9.6h0C185.8,1.9,194.7,16.9,188,29.2z"/>
<path fill="#FFFFFF" stroke="#000000" stroke-width="3" stroke-miterlimit="10" d="M147,29.2l-27.9,51.1c-3.2,5.9-9.4,9.6-16.2,9.6
	h0c-14,0-22.9-15-16.2-27.3l27.9-51.1c3.2-5.9,9.4-9.6,16.2-9.6h0C144.8,1.9,153.7,16.9,147,29.2z"/>
<path fill="#FFFFFF" stroke="#000000" stroke-width="3" stroke-miterlimit="10" d="M105,29.2L77.1,80.3c-3.2,5.9-9.4,9.6-16.2,9.6h0
	c-14,0-22.9-15-16.2-27.3l27.9-51.1c3.2-5.9,9.4-9.6,16.2-9.6h0C102.8,1.9,111.7,16.9,105,29.2z"/>
<path fill="#FFFFFF" stroke="#000000" stroke-width="3" stroke-miterlimit="10" d="M64,29.2L36.1,80.3c-3.2,5.9-9.4,9.6-16.2,9.6h0
	c-14,0-22.9-15-16.2-27.3l27.9-51.1c3.2-5.9,9.4-9.6,16.2-9.6h0C61.8,1.9,70.7,16.9,64,29.2z"/>
<path fill="#FFFFFF" stroke="#000000" stroke-width="3" stroke-miterlimit="10" d="M968,29.2l-27.9,51.1c-3.2,5.9-9.4,9.6-16.2,9.6
	h0c-14,0-22.9-15-16.2-27.3l27.9-51.1c3.2-5.9,9.4-9.6,16.2-9.6l0,0C965.8,1.9,974.7,16.9,968,29.2z"/>
<path fill="#FFFFFF" stroke="#000000" stroke-width="3" stroke-miterlimit="10" d="M1012.1,29.2l-27.9,51.1
	c-3.2,5.9-9.4,9.6-16.2,9.6h0c-14,0-22.9-15-16.2-27.3l27.9-51.1c3.2-5.9,9.4-9.6,16.2-9.6h0C1009.9,1.9,1018.8,16.9,1012.1,29.2z"
	/>
<path fill="#FFFFFF" stroke="#000000" stroke-width="3" stroke-miterlimit="10" d="M1056.1,29.2l-27.9,51.1
	c-3.2,5.9-9.4,9.6-16.2,9.6l0,0c-14,0-22.9-15-16.2-27.3l27.9-51.1c3.2-5.9,9.4-9.6,16.2-9.6l0,0C1054,1.9,1062.8,16.9,1056.1,29.2z
	"/>
<path fill="#FFFFFF" stroke="#000000" stroke-width="3" stroke-miterlimit="10" d="M1100.2,29.2l-27.9,51.1
	c-3.2,5.9-9.4,9.6-16.2,9.6h0c-14,0-22.9-15-16.2-27.3l27.9-51.1c3.2-5.9,9.4-9.6,16.2-9.6l0,0C1098,1.9,1106.9,16.9,1100.2,29.2z"
	/>
<path fill="#FFFFFF" stroke="#000000" stroke-width="3" stroke-miterlimit="10" d="M927,29.2l-27.9,51.1c-3.2,5.9-9.4,9.6-16.2,9.6
	h0c-14,0-22.9-15-16.2-27.3l27.9-51.1c3.2-5.9,9.4-9.6,16.2-9.6l0,0C924.8,1.9,933.7,16.9,927,29.2z"/>
<path fill="#FFFFFF" stroke="#000000" stroke-width="3" stroke-miterlimit="10" d="M886,29.2l-27.9,51.1c-3.2,5.9-9.4,9.6-16.2,9.6
	h0c-14,0-22.9-15-16.2-27.3l27.9-51.1c3.2-5.9,9.4-9.6,16.2-9.6l0,0C883.8,1.9,892.7,16.9,886,29.2z"/>
<path fill="#FFFFFF" stroke="#000000" stroke-width="3" stroke-miterlimit="10" d="M845,29.2l-27.9,51.1c-3.2,5.9-9.4,9.6-16.2,9.6
	h0c-14,0-22.9-15-16.2-27.3l27.9-51.1c3.2-5.9,9.4-9.6,16.2-9.6l0,0C842.8,1.9,851.7,16.9,845,29.2z"/>
<path fill="#FFFFFF" stroke="#000000" stroke-width="3" stroke-miterlimit="10" d="M804,29.2l-27.9,51.1c-3.2,5.9-9.4,9.6-16.2,9.6
	h0c-14,0-22.9-15-16.2-27.3l27.9-51.1c3.2-5.9,9.4-9.6,16.2-9.6l0,0C801.8,1.9,810.7,16.9,804,29.2z"/>
<path fill="#FFFFFF" stroke="#000000" stroke-width="3" stroke-miterlimit="10" d="M763,29.2l-27.9,51.1c-3.2,5.9-9.4,9.6-16.2,9.6
	h0c-14,0-22.9-15-16.2-27.3l27.9-51.1c3.2-5.9,9.4-9.6,16.2-9.6l0,0C760.8,1.9,769.7,16.9,763,29.2z"/>
<path fill="#FFFFFF" stroke="#000000" stroke-width="3" stroke-miterlimit="10" d="M722,29.2l-27.9,51.1c-3.2,5.9-9.4,9.6-16.2,9.6
	h0c-14,0-22.9-15-16.2-27.3l27.9-51.1c3.2-5.9,9.4-9.6,16.2-9.6l0,0C719.8,1.9,728.7,16.9,722,29.2z"/>
<path fill="#FFFFFF" stroke="#000000" stroke-width="3" stroke-miterlimit="10" d="M681,29.2l-27.9,51.1c-3.2,5.9-9.4,9.6-16.2,9.6
	h0c-14,0-22.9-15-16.2-27.3l27.9-51.1c3.2-5.9,9.4-9.6,16.2-9.6l0,0C678.8,1.9,687.7,16.9,681,29.2z"/>
</svg>
