<?xml version="1.0" encoding="utf-8"?>
<!-- Generator: Adobe Illustrator 18.1.1, SVG Export Plug-In . SVG Version: 6.00 Build 0)  -->
<!DOCTYPE svg PUBLIC "-//W3C//DTD SVG 1.1//EN" "http://www.w3.org/Graphics/SVG/1.1/DTD/svg11.dtd">
<svg version="1.1" id="Layer_1" xmlns="http://www.w3.org/2000/svg" xmlns:xlink="http://www.w3.org/1999/xlink" x="0px" y="0px"
	 viewBox="0 0 623 623" enable-background="new 0 0 623 623" xml:space="preserve">
<path fill="#444545" d="M605.5,294c-0.1,0-0.3,0-0.4,0c-26.2,3.5-57,5.9-90.1,7.7c-3-6.4-9.5-10.8-17-10.8c-2.1,0-4.2,0.4-6.1,1
	c-4-36.7-18.9-70.2-41.4-97c2.2-0.9,4.3-2.3,6.1-4.1c4.3-4.3,6.1-10.3,5.3-15.9c24.8-22.9,48.5-43.3,69.6-58.6
	c7.1-6.8,7.3-18.1,0.3-25c-3.4-3.4-7.9-5.1-12.4-5.1c-4.6,0-9.2,1.8-12.7,5.4c-15.8,20.8-35.6,43.8-57.4,68.1
	c-6.6-2.3-14.2-0.8-19.5,4.5c-1.9,1.9-3.3,4.1-4.2,6.4c-27.2-22.1-60.9-36.4-97.7-39.8c1.2-2.5,1.8-5.2,1.8-8.1
	c0-6.6-3.4-12.4-8.5-15.8c1.4-33.1,3.7-63.6,7.8-89C329.2,8.1,321.3,0,311.5,0C301.8,0,294,7.9,294,17.5c0,0.1,0,0.3,0,0.4
	c3.5,25.8,5.8,56,7.6,88.4c-5.7,3.2-9.5,9.3-9.5,16.3c0,2.9,0.7,5.7,1.9,8.2c-36.9,3.5-70.5,18-97.6,40.2c-0.9-2.5-2.4-4.9-4.4-6.9
	c-5.1-5.1-12.4-6.7-18.8-4.7c-22.2-24.2-42-47.2-57-67.9c-6.8-7.1-18.1-7.2-25-0.3c-3.4,3.4-5.1,7.9-5.1,12.4
	c0,4.6,1.8,9.2,5.4,12.7c20.9,16,44.1,35.9,68.6,57.8c-1.1,5.9,0.7,12.1,5.2,16.7c2,2,4.3,3.4,6.7,4.3
	c-22.5,26.9-37.3,60.3-41.2,97.1c-2.2-0.9-4.5-1.3-7-1.3c-7.6,0-14.1,4.5-17.1,10.9c-33.1-1.4-63.6-3.7-88.9-7.7
	C8.1,293.8,0,301.7,0,311.5c0,9.8,8.1,17.7,17.9,17.5c26.5-3.6,57.7-5.9,91.2-7.7c3.4,4.4,8.8,7.3,14.8,7.3c2.3,0,4.6-0.5,6.6-1.2
	c3.2,36.9,17.4,70.7,39.4,97.9c-1.6,0.9-3.2,2-4.5,3.4c-5.3,5.3-6.8,13.1-4.4,19.7c-24.8,22.8-48.3,43.1-69.5,58.4
	c-7.1,6.8-7.2,18.1-0.3,25c3.4,3.4,7.9,5.1,12.4,5.1c4.6,0,9.2-1.8,12.7-5.4c16.4-21.5,37.1-45.6,59.9-70.9c5.6,0.8,11.5-1,15.9-5.3
	c1.3-1.3,2.3-2.8,3.2-4.3c27,22.5,60.6,37.3,97.5,41.1c-0.4,1.5-0.6,3-0.6,4.6c0,7.1,4,13.3,9.8,16.5c-1.4,34.2-3.7,65.8-7.9,91.9
	c-0.2,9.8,7.7,17.9,17.5,17.9c9.7,0,17.5-7.8,17.5-17.5c0-0.2,0-0.3,0-0.4c-3.6-26.9-6-58.5-7.8-92.6c5.2-3.4,8.6-9.2,8.6-15.8
	c0-1.6-0.2-3.1-0.6-4.6c37-3.6,70.7-18.3,97.7-40.7c0.8,1.4,1.8,2.6,2.9,3.8c4.6,4.6,11,6.3,17,5.2c23.4,25.4,44.3,49.5,59.9,71.1
	c6.8,7.1,18.1,7.2,25,0.3c3.4-3.4,5.1-7.9,5.1-12.4c0-4.6-1.8-9.2-5.4-12.7c-21.3-16.3-45.2-36.8-70.3-59.3c2-6.4,0.4-13.7-4.7-18.8
	c-1.2-1.2-2.6-2.2-4-3c22-27.3,36.4-61,39.6-98c1.8,0.6,3.8,0.9,5.8,0.9c6.1,0,11.5-2.9,15-7.4c34.3,1.4,66,3.7,92.2,7.9
	c9.8,0.2,17.9-7.7,17.9-17.5C623,301.8,615.1,294,605.5,294z M321.5,166.1c33,2.2,62.6,15.3,85.9,35.7l-60.1,60
	c-7.6-5.5-15.9-9.2-25.9-10.8V166.1z M301.5,166v84.9c-9,1.5-18.4,5.3-26,10.8l-60.1-60C238.8,181.3,268.5,168.2,301.5,166z
	 M201.6,215.8l60,60.1c-5.5,7.6-9.3,16.2-10.8,26.2h-84.9C168.1,269.1,181.2,239.1,201.6,215.8z M165.9,322.1h84.9
	c1.6,9,5.3,18.1,10.8,25.7l-60,60.2C181.2,384.6,168.1,354.1,165.9,322.1z M301.5,456.9c-33-2.2-62.7-15.2-86-35.6l60-60
	c7.6,5.5,17,9.2,26,10.8V456.9z M311.5,342.6c-17.2,0-31.1-13.9-31.1-31.1c0-17.2,13.9-31.1,31.1-31.1c17.2,0,31.1,13.9,31.1,31.1
	C342.6,328.7,328.7,342.6,311.5,342.6z M321.5,456.9V372c10-1.6,18.3-5.3,25.9-10.8l60,60C384.1,441.6,354.5,454.7,321.5,456.9z
	 M421.2,407.6l-60-59.8c5.4-7.6,9.2-16.8,10.7-25.8h84.8C454.6,354.1,441.6,384.3,421.2,407.6z M372,302.1
	c-1.5-10-5.3-18.6-10.7-26.1l60-59.9c20.3,23.3,33.4,53,35.6,86H372z"/>
</svg>
