<svg xmlns="http://www.w3.org/2000/svg" viewBox="0 0 623 623" enable-background="new 0 0 623 623"><path fill="#444545" d="M605.5 294h-.4c-26.2 3.5-57 5.9-90.1 7.7-3-6.4-9.5-10.8-17-10.8-2.1 0-4.2.4-6.1 1-4-36.7-18.9-70.2-41.4-97 2.2-.9 4.3-2.3 6.1-4.1 4.3-4.3 6.1-10.3 5.3-15.9 24.8-22.9 48.5-43.3 69.6-58.6 7.1-6.8 7.3-18.1.3-25-3.4-3.4-7.9-5.1-12.4-5.1-4.6 0-9.2 1.8-12.7 5.4-15.8 20.8-35.6 43.8-57.4 68.1-6.6-2.3-14.2-.8-19.5 4.5-1.9 1.9-3.3 4.1-4.2 6.4-27.2-22.1-60.9-36.4-97.7-39.8 1.2-2.5 1.8-5.2 1.8-8.1 0-6.6-3.4-12.4-8.5-15.8 1.4-33.1 3.7-63.6 7.8-89 .2-9.8-7.7-17.9-17.5-17.9-9.7 0-17.5 7.9-17.5 17.5v.4c3.5 25.8 5.8 56 7.6 88.4-5.7 3.2-9.5 9.3-9.5 16.3 0 2.9.7 5.7 1.9 8.2-36.9 3.5-70.5 18-97.6 40.2-.9-2.5-2.4-4.9-4.4-6.9-5.1-5.1-12.4-6.7-18.8-4.7-22.2-24.2-42-47.2-57-67.9-6.8-7.1-18.1-7.2-25-.3-3.4 3.4-5.1 7.9-5.1 12.4 0 4.6 1.8 9.2 5.4 12.7 20.9 16 44.1 35.9 68.6 57.8-1.1 5.9.7 12.1 5.2 16.7 2 2 4.3 3.4 6.7 4.3-22.5 26.9-37.3 60.3-41.2 97.1-2.2-.9-4.5-1.3-7-1.3-7.6 0-14.1 4.5-17.1 10.9-33.1-1.4-63.6-3.7-88.9-7.7-9.7-.3-17.8 7.6-17.8 17.4 0 9.8 8.1 17.7 17.9 17.5 26.5-3.6 57.7-5.9 91.2-7.7 3.4 4.4 8.8 7.3 14.8 7.3 2.3 0 4.6-.5 6.6-1.2 3.2 36.9 17.4 70.7 39.4 97.9-1.6.9-3.2 2-4.5 3.4-5.3 5.3-6.8 13.1-4.4 19.7-24.8 22.8-48.3 43.1-69.5 58.4-7.1 6.8-7.2 18.1-.3 25 3.4 3.4 7.9 5.1 12.4 5.1 4.6 0 9.2-1.8 12.7-5.4 16.4-21.5 37.1-45.6 59.9-70.9 5.6.8 11.5-1 15.9-5.3 1.3-1.3 2.3-2.8 3.2-4.3 27 22.5 60.6 37.3 97.5 41.1-.4 1.5-.6 3-.6 4.6 0 7.1 4 13.3 9.8 16.5-1.4 34.2-3.7 65.8-7.9 91.9-.2 9.8 7.7 17.9 17.5 17.9 9.7 0 17.5-7.8 17.5-17.5v-.4c-3.6-26.9-6-58.5-7.8-92.6 5.2-3.4 8.6-9.2 8.6-15.8 0-1.6-.2-3.1-.6-4.6 37-3.6 70.7-18.3 97.7-40.7.8 1.4 1.8 2.6 2.9 3.8 4.6 4.6 11 6.3 17 5.2 23.4 25.4 44.3 49.5 59.9 71.1 6.8 7.1 18.1 7.2 25 .3 3.4-3.4 5.1-7.9 5.1-12.4 0-4.6-1.8-9.2-5.4-12.7-21.3-16.3-45.2-36.8-70.3-59.3 2-6.4.4-13.7-4.7-18.8-1.2-1.2-2.6-2.2-4-3 22-27.3 36.4-61 39.6-98 1.8.6 3.8.9 5.8.9 6.1 0 11.5-2.9 15-7.4 34.3 1.4 66 3.7 92.2 7.9 9.8.2 17.9-7.7 17.9-17.5 0-9.7-7.9-17.5-17.5-17.5zm-284-127.9c33 2.2 62.6 15.3 85.9 35.7l-60.1 60c-7.6-5.5-15.9-9.2-25.9-10.8v-84.9zm-20-.1v84.9c-9 1.5-18.4 5.3-26 10.8l-60.1-60c23.4-20.4 53.1-33.5 86.1-35.7zm-99.9 49.8l60 60.1c-5.5 7.6-9.3 16.2-10.8 26.2h-84.9c2.2-33 15.3-63 35.7-86.3zm-35.7 106.3h84.9c1.6 9 5.3 18.1 10.8 25.7l-60 60.2c-20.4-23.4-33.5-53.9-35.7-85.9zm135.6 134.8c-33-2.2-62.7-15.2-86-35.6l60-60c7.6 5.5 17 9.2 26 10.8v84.8zm10-114.3c-17.2 0-31.1-13.9-31.1-31.1 0-17.2 13.9-31.1 31.1-31.1 17.2 0 31.1 13.9 31.1 31.1 0 17.2-13.9 31.1-31.1 31.1zm10 114.3v-84.9c10-1.6 18.3-5.3 25.9-10.8l60 60c-23.3 20.4-52.9 33.5-85.9 35.7zm99.7-49.3l-60-59.8c5.4-7.6 9.2-16.8 10.7-25.8h84.8c-2.1 32.1-15.1 62.3-35.5 85.6zm-49.2-105.5c-1.5-10-5.3-18.6-10.7-26.1l60-59.9c20.3 23.3 33.4 53 35.6 86h-84.9z"/></svg>