<svg xmlns="http://www.w3.org/2000/svg" viewBox="0 0 960 560" enable-background="new 0 0 960 560"><g><path fill="#fff" d="M607 277c67.8 0 123 55.2 123 123s-55.2 123-123 123h-382c-67.8 0-123-55.2-123-123s55.2-123 123-123h382z"/><path d="M607 267c73.3 0 133 59.7 133 133s-59.7 133-133 133h-382c-73.3 0-133-59.7-133-133s59.7-133 133-133h382zm123 133c0-67.8-55.2-123-123-123h-382c-67.8 0-123 55.2-123 123s55.2 123 123 123h382c67.8 0 123-55.2 123-123z"/></g><path d="M287.1 445.6c-28.4 0-51.5-23.1-51.5-51.5s23.1-51.5 51.5-51.5 51.5 23.1 51.5 51.5-23.1 51.5-51.5 51.5zm0-93c-22.9 0-41.5 18.6-41.5 41.5s18.6 41.5 41.5 41.5 41.5-18.6 41.5-41.5-18.6-41.5-41.5-41.5zM287.1 463.2c-38.1 0-69.1-31-69.1-69.1s31-69.1 69.1-69.1 69.1 31 69.1 69.1-31 69.1-69.1 69.1zm0-133.2c-35.4 0-64.1 28.8-64.1 64.1s28.8 64.1 64.1 64.1 64.1-28.8 64.1-64.1-28.7-64.1-64.1-64.1zM847.3 529.8h-114v-265.5h114v265.5zm-106.5-7.5h99v-250.5h-99v250.5z"/><g><path fill="#fff" d="M505 154.1v117.9h-226v-117.9c11-4.1 22-7.5 33-10.4 17.8-4.7 35.2-7.8 52.8-9.4 4.1-.4 8.2-.7 12.3-.9 13.7-.7 27.4-.5 41 .6 29.5 2.6 58.7 9.3 86.9 20.1z"/><path stroke="#000" stroke-width="8" stroke-miterlimit="10" d="M505 154.1v117.9h-226v-117.9c11-4.1 22-7.5 33-10.4 17.8-4.7 35.2-7.8 52.8-9.4 4.1-.4 8.2-.7 12.3-.9 13.7-.7 27.4-.5 41 .6 29.5 2.6 58.7 9.3 86.9 20.1z" fill="none"/></g></svg>