<?xml version="1.0" encoding="utf-8"?>
<!-- Generator: Adobe Illustrator 18.1.1, SVG Export Plug-In . SVG Version: 6.00 Build 0)  -->
<!DOCTYPE svg PUBLIC "-//W3C//DTD SVG 1.1//EN" "http://www.w3.org/Graphics/SVG/1.1/DTD/svg11.dtd">
<svg version="1.1" id="Layer_1" xmlns="http://www.w3.org/2000/svg" xmlns:xlink="http://www.w3.org/1999/xlink" x="0px" y="0px"
	 viewBox="0 0 216 306" enable-background="new 0 0 216 306" xml:space="preserve">
<path fill="#FFFFFF" d="M148,66v214.8c-7.1-0.5-14.3-0.7-21.4-0.7c-3.8,0-7.7,0.1-11.6,0.2V107H70.1c-2.6-4.9-5.2-8.7-7.5-12.1
	c-6-8.8-9.2-13.5-4.1-28.9H148z"/>
<path d="M156,58v231.5l-4.3-0.4c-13.4-1.1-27.1-1.3-40.5-0.6l-4.2,0.2V115H65.1l-1.1-2.2c-2.7-5.5-5.5-9.7-8-13.3
	c-6.9-10.1-11.9-17.3-4.1-38.8l0.9-2.7H156z M148,280.9V66H58.5c-5.1,15.5-1.9,20.1,4.1,28.9c2.3,3.4,4.9,7.1,7.5,12.1H115v173.3
	c3.9-0.1,7.8-0.2,11.6-0.2C133.7,280.1,140.9,280.4,148,280.9z"/>
</svg>
