<?xml version="1.0" encoding="utf-8"?>
<!-- Generator: Adobe Illustrator 18.1.1, SVG Export Plug-In . SVG Version: 6.00 Build 0)  -->
<!DOCTYPE svg PUBLIC "-//W3C//DTD SVG 1.1//EN" "http://www.w3.org/Graphics/SVG/1.1/DTD/svg11.dtd">
<svg version="1.1" id="Layer_1" xmlns="http://www.w3.org/2000/svg" xmlns:xlink="http://www.w3.org/1999/xlink" x="0px" y="0px"
	 viewBox="0 0 960 560" enable-background="new 0 0 960 560" xml:space="preserve">
<g>
	<path d="M607,533H225c-73.3,0-133-59.7-133-133c0-73.3,59.7-133,133-133h382c73.3,0,133,59.7,133,133C740,473.3,680.3,533,607,533z
		 M225,277c-67.8,0-123,55.2-123,123s55.2,123,123,123h382c67.8,0,123-55.2,123-123s-55.2-123-123-123H225z"/>
</g>
<circle fill="none" stroke="#000000" stroke-width="10" stroke-miterlimit="10" cx="287.1" cy="394.1" r="46.5"/>
<circle fill="none" stroke="#000000" stroke-width="5" stroke-miterlimit="10" cx="287.1" cy="394.1" r="66.6"/>
<rect x="737.1" y="268.1" fill="none" stroke="#000000" stroke-width="7.5" stroke-miterlimit="10" width="106.5" height="258"/>
<path fill="none" stroke="#000000" stroke-width="8" stroke-miterlimit="10" d="M505,154.1V272H279V154.1c11-4,22-7.5,33-10.4
	c17.8-4.7,35.2-7.8,52.8-9.4c4.1-0.4,8.2-0.7,12.3-0.9c13.7-0.7,27.4-0.5,41,0.7C447.6,136.6,476.8,143.3,505,154.1z"/>
<path fill="none" stroke="#000000" stroke-width="8" stroke-miterlimit="10" d="M1210-155v115.2c-13.6-1.1-27.3-1.4-41-0.7V-106
	h-43.4c-10.3-21-21.7-22-12-49H1210z"/>
</svg>
