<?xml version="1.0" encoding="utf-8"?>
<!-- Generator: Adobe Illustrator 18.1.1, SVG Export Plug-In . SVG Version: 6.00 Build 0)  -->
<!DOCTYPE svg PUBLIC "-//W3C//DTD SVG 1.1//EN" "http://www.w3.org/Graphics/SVG/1.1/DTD/svg11.dtd">
<svg version="1.1" id="Layer_1" xmlns="http://www.w3.org/2000/svg" xmlns:xlink="http://www.w3.org/1999/xlink" x="0px" y="0px"
	 viewBox="0 0 718.5 231.3" enable-background="new 0 0 718.5 231.3" xml:space="preserve">
<g>
	<path d="M207.9,184.8l-4.3-0.4c-13.5-1.1-27.1-1.3-40.5-0.6l-4.2,0.2v-65.7H117l-1.1-2.2c-2.7-5.5-5.5-9.7-8-13.3
		C101,92.7,96,85.5,103.7,64l1-2.6h103.2V184.8z M178.5,175.4c7.1,0,14.3,0.2,21.4,0.7V69.3h-89.5c-5.1,15.5-1.9,20.1,4.1,29
		c2.3,3.4,4.9,7.1,7.5,12h44.9v65.3C170.7,175.5,174.6,175.4,178.5,175.4z"/>
</g>
<g>
	<path d="M529.9,184.8V61.3H633l1,2.6c7.7,21.5,2.7,28.8-4.2,38.8c-2.5,3.6-5.3,7.7-8,13.3l-1.1,2.2h-41.8V184l-4.2-0.2
		c-5.3-0.3-10.3-0.4-15.4-0.4c-8.2,0-16.4,0.3-25.1,1L529.9,184.8z M537.9,69.3v106.8c11.4-0.8,22-0.9,33-0.5v-65.3h44.9
		c2.6-4.9,5.2-8.7,7.5-12c6-8.8,9.2-13.5,4.1-29H537.9z"/>
</g>
<g>
	<path d="M370.6,131.4c-15.4,0-29.5-8.4-36.8-22c-3.2-6-4.9-12.8-4.9-19.7c0-23,18.7-41.7,41.7-41.7c23,0,41.7,18.7,41.7,41.7
		c0,9.2-3,18-8.6,25.3C395.8,125.4,383.7,131.4,370.6,131.4z M370.6,62.4c-15,0-27.3,12.2-27.3,27.3c0,4.6,1.1,8.9,3.2,12.9
		c4.8,8.9,14,14.4,24,14.4c8.6,0,16.5-3.9,21.7-10.7c3.7-4.8,5.6-10.5,5.6-16.5C397.8,74.6,385.6,62.4,370.6,62.4z"/>
</g>
<g>
	<path d="M369.2,191.3c-10,0-20-2.5-29.8-7l-1.5-0.9V96.3l4.7,8.5c5.8,10.4,16.6,16.9,28.3,16.9c9.7,0,18.6-4.4,25.6-12.7l4.4-5.2
		v79.6l-1.5,0.9C389.3,188.8,379.2,191.3,369.2,191.3C369.2,191.3,369.2,191.3,369.2,191.3z M342.9,180.2c8.7,3.8,17.5,6.1,26.3,6.1
		c0,0,0,0,0,0c8.8,0,17.8-2.4,26.7-6.1v-63.4c-7.2,6.5-15.8,9.9-25,9.9c-10.8,0-20.9-4.8-28-12.8V180.2z"/>
</g>
</svg>
