<svg xmlns="http://www.w3.org/2000/svg" viewBox="0 0 216 306" enable-background="new 0 0 216 306"><path fill="#fff" d="M148 66v214.8c-7.1-.5-14.3-.7-21.4-.7-3.8 0-7.7.1-11.6.2v-173.3h-44.9c-2.6-4.9-5.2-8.7-7.5-12.1-6-8.8-9.2-13.5-4.1-28.9h89.5z"/><path d="M156 58v231.5l-4.3-.4c-13.4-1.1-27.1-1.3-40.5-.6l-4.2.2v-173.7h-41.9l-1.1-2.2c-2.7-5.5-5.5-9.7-8-13.3-6.9-10.1-11.9-17.3-4.1-38.8l.9-2.7h103.2zm-8 222.9v-214.9h-89.5c-5.1 15.5-1.9 20.1 4.1 28.9 2.3 3.4 4.9 7.1 7.5 12.1h44.9v173.3c3.9-.1 7.8-.2 11.6-.2 7.1 0 14.3.3 21.4.8z"/></svg>