<?xml version="1.0" encoding="utf-8"?>
<!-- Generator: Adobe Illustrator 18.1.1, SVG Export Plug-In . SVG Version: 6.00 Build 0)  -->
<!DOCTYPE svg PUBLIC "-//W3C//DTD SVG 1.1//EN" "http://www.w3.org/Graphics/SVG/1.1/DTD/svg11.dtd">
<svg version="1.1" id="Layer_1" xmlns="http://www.w3.org/2000/svg" xmlns:xlink="http://www.w3.org/1999/xlink" x="0px" y="0px"
	 viewBox="0 0 893.4 214.4" style="enable-background:new 0 0 893.4 214.4;" xml:space="preserve">
<style type="text/css">
	.st0{fill:#4791AF;}
</style>
<path class="st0" d="M862.3,45.9c0,0-27.8,17.9-69.8,19.1c-42-1.2-69.8-19.1-69.8-19.1S695,63.8,653,65.1
	c-42-1.2-69.8-19.1-69.8-19.1s-27.8,17.9-69.8,19.1c-42-1.2-69.8-19.1-69.8-19.1s-27.8,17.9-69.8,19.1c-42-1.2-69.8-19.1-69.8-19.1
	s-27.8,17.9-69.8,19.1c-42-1.2-69.8-19.1-69.8-19.1s-27.8,17.9-69.8,19.1c-42-1.2-69.8-19.1-69.8-19.1v134.8h837.4V45.9z"/>
<g>
</g>
<g>
</g>
<g>
</g>
<g>
</g>
<g>
</g>
<g>
</g>
</svg>
