<?xml version="1.0" encoding="utf-8"?>
<!-- Generator: Adobe Illustrator 18.1.1, SVG Export Plug-In . SVG Version: 6.00 Build 0)  -->
<!DOCTYPE svg PUBLIC "-//W3C//DTD SVG 1.1//EN" "http://www.w3.org/Graphics/SVG/1.1/DTD/svg11.dtd">
<svg version="1.1" id="Layer_1" xmlns="http://www.w3.org/2000/svg" xmlns:xlink="http://www.w3.org/1999/xlink" x="0px" y="0px"
	 viewBox="0 0 1899.2 933.1" style="enable-background:new 0 0 1899.2 933.1;" xml:space="preserve">
<style type="text/css">
	.st0{fill:#9CD4E4;}
</style>
<path class="st0" d="M1714.9,65.1c-36.2-1.1-61.8-14.5-68.2-18.2v-0.9c0,0-0.3,0.2-0.8,0.5c-0.5-0.3-0.8-0.5-0.8-0.5
	s-27.4,17.7-69,19.1c-41.5-1.4-69-19.1-69-19.1s-0.3,0.2-0.8,0.5c-0.3-0.2-0.5-0.3-0.6-0.4v-0.1c0,0,0,0-0.1,0.1
	c-0.1,0-0.1-0.1-0.1-0.1s0,0,0,0v0c0,0-12,7.7-32.1,13.4c0,0-0.1,0-0.1,0c-0.9,0.3-1.8,0.5-2.8,0.7c-0.2,0.1-0.4,0.1-0.6,0.2
	c-0.8,0.2-1.5,0.4-2.3,0.6c-0.4,0.1-0.8,0.2-1.1,0.3c-0.6,0.1-1.3,0.3-1.9,0.4c-0.5,0.1-1,0.2-1.6,0.3c-0.5,0.1-1.1,0.2-1.6,0.3
	c-0.6,0.1-1.3,0.2-1.9,0.4c-0.4,0.1-0.9,0.2-1.3,0.2c-0.7,0.1-1.5,0.3-2.3,0.4c-0.4,0.1-0.7,0.1-1.1,0.2c-0.8,0.1-1.7,0.2-2.6,0.4
	c-0.3,0-0.6,0.1-0.9,0.1c-0.9,0.1-1.9,0.2-2.8,0.3c-0.2,0-0.5,0.1-0.7,0.1c-1,0.1-2,0.2-3.1,0.3c-0.2,0-0.4,0-0.6,0.1
	c-1.1,0.1-2.2,0.2-3.3,0.2c-0.2,0-0.3,0-0.5,0c-1.1,0.1-2.3,0.1-3.4,0.2c-0.1,0-0.2,0-0.3,0c-41.5-1.4-69-19.1-69-19.1s0,0,0,0v0
	c0,0-0.2,0.2-0.7,0.4c-0.5-0.3-0.7-0.4-0.7-0.4s0,0-0.1,0.1c-0.1,0-0.1-0.1-0.1-0.1s0,0,0,0c0,0,0,0,0,0s-27.4,17.7-69,19.1
	c-41.5-1.4-69-19.1-69-19.1s0,0,0,0c0,0,0,0,0,0s-0.2,0.2-0.7,0.4c-0.5-0.3-0.7-0.4-0.7-0.4s0,0,0,0v0c0,0,0,0,0,0v0c0,0,0,0,0,0
	c0,0,0,0,0,0s0,0,0,0c0,0,0,0,0,0s-27.4,17.7-69,19.1c-40.3-1.4-67.3-18-68.9-19.1v-0.1c0,0,0,0,0,0c0,0,0,0,0,0s0,0,0,0
	c0,0,0,0,0,0s-0.2,0.2-0.7,0.4c-0.5-0.3-0.7-0.4-0.7-0.4s0,0,0,0c0,0,0,0,0,0s0,0,0,0c0,0,0,0,0,0s0,0,0,0c0,0,0,0,0,0s0,0,0,0
	c0,0,0,0,0,0s-27.4,17.7-68.9,19.1c-41.5-1.5-68.9-19.1-68.9-19.1s0,0,0,0c0,0,0,0,0,0s0,0,0,0c0,0,0,0,0,0s-0.2,0.2-0.7,0.4
	c-0.3-0.2-0.5-0.3-0.6-0.4v-0.1c0,0,0,0,0,0c0,0,0,0,0,0s0,0,0,0c0,0,0,0,0,0s0,0,0,0c0,0,0,0,0,0s0,0,0,0c0,0,0,0,0,0v0
	c0,0,0,0,0,0S919.8,63.6,878.2,65c-41.5-1.5-68.9-19.1-68.9-19.1s0,0,0,0c0,0,0,0,0,0v0c0,0,0,0,0,0s-0.2,0.1-0.7,0.4
	c-0.4-0.3-0.7-0.4-0.7-0.4s0,0,0,0c0,0,0,0,0,0s0,0,0,0c0,0,0,0,0,0s0,0,0,0c0,0,0,0,0,0s0,0-0.1,0c0,0-0.1,0-0.1,0
	S780.2,63.6,738.7,65c-41.5-1.5-68.9-19.1-68.9-19.1s0,0-0.1,0c0,0-0.1,0-0.1,0s-0.2,0.1-0.7,0.4c-0.4-0.3-0.7-0.4-0.7-0.4s0,0,0,0
	c0,0,0,0,0,0v0c0,0,0,0,0,0s0,0,0,0c0,0,0,0,0,0s0,0-0.1,0c0,0-0.1,0-0.1,0V46c-1.9,1.2-28.8,17.7-68.9,19
	c-41.5-1.4-69-19.1-69-19.1s0,0-0.1,0c0,0-0.1,0-0.1,0V46c-0.1,0.1-0.3,0.2-0.6,0.4c-0.5-0.3-0.7-0.4-0.7-0.4s0,0-0.1,0
	c0,0-0.1,0-0.1,0s0,0,0,0c0,0,0,0,0,0s-27.4,17.7-69,19.1c-41.5-1.4-69-19.1-69-19.1s-0.2,0.2-0.7,0.4c-0.5-0.3-0.7-0.4-0.7-0.4
	s0,0-0.1,0c0,0-0.1,0-0.1,0v0c0,0,0,0,0,0V46c-2.2,1.4-29,17.7-68.9,19C278.5,63.6,251,45.9,251,45.9v0.9c-0.9-0.5-1.4-0.9-1.4-0.9
	s-27.8,17.9-69.8,19.1c-42-1.2-69.8-19.1-69.8-19.1v854.2h141h138h0h141h138h0.2h141h138h0.2h141h138h0h141h138h0.2h141h138V45.9
	C1784.6,45.9,1756.9,63.8,1714.9,65.1z"/>
<g>
</g>
<g>
</g>
<g>
</g>
<g>
</g>
<g>
</g>
<g>
</g>
</svg>
