<?xml version="1.0" encoding="utf-8"?>
<!-- Generator: Adobe Illustrator 18.1.1, SVG Export Plug-In . SVG Version: 6.00 Build 0)  -->
<!DOCTYPE svg PUBLIC "-//W3C//DTD SVG 1.1//EN" "http://www.w3.org/Graphics/SVG/1.1/DTD/svg11.dtd">
<svg version="1.1" id="Layer_1" xmlns="http://www.w3.org/2000/svg" xmlns:xlink="http://www.w3.org/1999/xlink" x="0px" y="0px"
	 viewBox="0 202 576 322" enable-background="new 0 202 576 322" xml:space="preserve">
<path fill="#9CD4E4" d="M530,233.9c-11.5-0.3-19.5-4.6-21.6-5.7v-0.3c0,0-0.1,0.1-0.2,0.2c-0.2-0.1-0.2-0.2-0.2-0.2
	s-8.7,5.6-21.8,6.1c-13.1-0.4-21.8-6.1-21.8-6.1s-0.1,0.1-0.2,0.2c-0.1-0.1-0.2-0.1-0.2-0.1l0,0l0,0l0,0l0,0l0,0
	c0,0-3.8,2.4-10.1,4.3l0,0c-0.3,0.1-0.5,0.2-0.8,0.2c-0.1,0-0.1,0-0.2,0.1c-0.2,0.1-0.5,0.1-0.7,0.2c-0.1,0-0.2,0.1-0.3,0.1
	c-0.2,0-0.4,0.1-0.6,0.1s-0.3,0.1-0.5,0.1s-0.3,0.1-0.5,0.1s-0.4,0.1-0.6,0.1c-0.1,0-0.3,0.1-0.4,0.1c-0.2,0-0.5,0.1-0.7,0.1
	c-0.1,0-0.2,0-0.3,0.1c-0.2,0-0.5,0.1-0.8,0.1c-0.1,0-0.2,0-0.3,0c-0.3,0-0.6,0.1-0.8,0.1c-0.1,0-0.2,0-0.2,0
	c-0.3,0-0.6,0.1-0.9,0.1c-0.1,0-0.1,0-0.2,0c-0.3,0-0.7,0.1-1,0.1c-0.1,0-0.1,0-0.2,0c-0.3,0-0.7,0-1,0.1h-0.1
	c-13.1-0.4-21.8-6.1-21.8-6.1l0,0l0,0c0,0-0.1,0.1-0.2,0.1c-0.2-0.1-0.2-0.1-0.2-0.1l0,0l0,0l0,0l0,0c0,0-8.7,5.6-21.8,6.1
	c-13.1-0.4-21.8-6.1-21.8-6.1l0,0l0,0c0,0-0.1,0.1-0.2,0.1c-0.2-0.1-0.2-0.1-0.2-0.1l0,0l0,0l0,0l0,0l0,0l0,0l0,0l0,0
	c0,0-8.7,5.6-21.8,6.1c-12.7-0.4-21.3-5.7-21.8-6.1l0,0l0,0l0,0l0,0l0,0c0,0-0.1,0.1-0.2,0.1c-0.2-0.1-0.2-0.1-0.2-0.1l0,0l0,0l0,0
	l0,0l0,0l0,0l0,0l0,0c0,0-8.7,5.6-21.8,6.1c-13.1-0.5-21.8-6.1-21.8-6.1l0,0l0,0l0,0l0,0c0,0-0.1,0.1-0.2,0.1
	c-0.1-0.1-0.2-0.1-0.2-0.1l0,0l0,0l0,0l0,0l0,0l0,0l0,0l0,0l0,0l0,0l0,0c0,0-9,5.6-22.1,6.1c-13.1-0.5-21.8-6.1-21.8-6.1l0,0l0,0
	l0,0l0,0c0,0-0.1,0-0.2,0.1c-0.1-0.1-0.2-0.1-0.2-0.1l0,0l0,0l0,0l0,0l0,0l0,0l0,0l0,0c0,0-8.7,5.6-21.8,6.1
	c-13.1-0.5-21.8-6.1-21.8-6.1l0,0l0,0c0,0-0.1,0-0.2,0.1c-0.1-0.1-0.2-0.1-0.2-0.1l0,0l0,0l0,0l0,0l0,0l0,0l0,0l0,0l0,0
	c-0.6,0.4-9.1,5.6-21.8,6.1c-13.1-0.4-21.8-6.1-21.8-6.1l0,0l0,0l0,0c0,0-0.1,0.1-0.2,0.1c-0.2-0.1-0.2-0.1-0.2-0.1l0,0l0,0l0,0l0,0
	c0,0-8.7,5.6-21.8,6.1c-13.1-0.4-21.8-6.1-21.8-6.1s-0.1,0.1-0.2,0.1c-0.2-0.1-0.2-0.1-0.2-0.1l0,0l0,0l0,0l0,0l0,0
	c-0.7,0.4-9.2,5.6-21.8,6.1c-14.2-0.7-22.9-6.4-22.9-6.4v0.3c-0.3-0.2-0.4-0.3-0.4-0.3s-8.8,5.6-22.1,6.1
	c-13.3-0.4-22.1-6.1-22.1-6.1v270.4h44.7h43.7l0,0h44.7h43.7h0.1h44.7h43.7h0.1h44.7h43.7l0,0h44.7h43.7h0.1H509h43.7V227.8
	C552.1,227.8,543.3,233.5,530,233.9z"/>
<rect x="22.1" y="407.5" fill="#E2D69F" width="530" height="90.7"/>
<circle fill="none" stroke="#BEDEE5" stroke-miterlimit="10" cx="293.9" cy="310.2" r="5.9"/>
<circle fill="none" stroke="#BEDEE5" stroke-miterlimit="10" cx="319.6" cy="267.8" r="7.5"/>
<circle fill="none" stroke="#BEDEE5" stroke-miterlimit="10" cx="326.9" cy="303" r="7.2"/>
</svg>
