<svg xmlns="http://www.w3.org/2000/svg" viewBox="0 392 576 328" enable-background="new 0 392 576 328"><path fill="#9CD4E4" d="M530 432.9c-11.5-.3-19.5-4.6-21.6-5.7v-.3l-.2.2c-.2-.1-.2-.2-.2-.2s-8.7 5.6-21.8 6.1c-13.1-.4-21.8-6.1-21.8-6.1l-.2.2c-.1-.1-.2-.1-.2-.1s-3.8 2.4-10.1 4.3c-.3.1-.5.2-.8.2-.1 0-.1 0-.2.1l-.7.2-.3.1-.6.1s-.3.1-.5.1-.3.1-.5.1-.4.1-.6.1l-.4.1-.7.1c-.1 0-.2 0-.3.1-.2 0-.5.1-.8.1h-.3c-.3 0-.6.1-.8.1h-.2l-.9.1h-.2l-1 .1h-.2c-.3 0-.7 0-1 .1h-.1c-13.1-.4-21.8-6.1-21.8-6.1s-.1.1-.2.1l-.2-.1s-8.7 5.6-21.8 6.1c-13.1-.4-21.8-6.1-21.8-6.1s-.1.1-.2.1l-.2-.1s-8.7 5.6-21.8 6.1c-12.7-.4-21.3-5.7-21.8-6.1 0 0-.1.1-.2.1l-.2-.1s-8.7 5.6-21.8 6.1c-13.1-.5-21.8-6.1-21.8-6.1s-.1.1-.2.1c-.1-.1-.2-.1-.2-.1s-9 5.6-22.1 6.1c-13.1-.5-21.8-6.1-21.8-6.1s-.1 0-.2.1c-.1-.1-.2-.1-.2-.1s-8.7 5.6-21.8 6.1c-13.1-.5-21.8-6.1-21.8-6.1s-.1 0-.2.1c-.1-.1-.2-.1-.2-.1-.6.4-9.1 5.6-21.8 6.1-13.1-.4-21.8-6.1-21.8-6.1s-.1.1-.2.1l-.2-.1s-8.7 5.6-21.8 6.1c-13.1-.4-21.8-6.1-21.8-6.1s-.1.1-.2.1l-.2-.1c-.7.4-9.2 5.6-21.8 6.1-14.2-.7-22.9-6.4-22.9-6.4v.3c-.3-.2-.4-.3-.4-.3s-8.8 5.6-22.1 6.1c-13.3-.4-22.1-6.1-22.1-6.1v270.4h529.7v-270.3c-.6 0-9.4 5.7-22.7 6.1z"/><path fill="#E2D69F" d="M22.1 606.5h530v90.7h-530z"/><circle stroke="#BEDEE5" stroke-miterlimit="10" cx="293.9" cy="509.2" r="5.9" fill="none"/><circle stroke="#BEDEE5" stroke-width=".5" stroke-miterlimit="10" cx="224.8" cy="556" r="3.8" fill="none"/><circle stroke="#BEDEE5" stroke-width=".5" stroke-miterlimit="10" cx="226.1" cy="528.3" r="8" fill="none"/><circle stroke="#BEDEE5" stroke-miterlimit="10" cx="319.6" cy="466.8" r="7.5" fill="none"/><circle stroke="#BEDEE5" stroke-miterlimit="10" cx="326.9" cy="502" r="7.2" fill="none"/><path fill="#686767" d="M324.2 603.4l-1.8 1.3-.2 2.2-2.2 2.1-.6 3-2.5 1.3v3c-12.7-9-18.5-18.3-18.9-27.9l26.2 15zM349.9 601.2v1.7l2.3 1.7.1 3.7 2.3 1.2.4 2.9 2.7 2.5c13.3-9.4 10.7-10.4 11-20.5l-18.8 6.8z"/><path stroke="#686767" stroke-width="2" stroke-miterlimit="10" fill="none" d="M336.6 611.8v-38.5"/><path fill="#fff" d="M336.6 576.3h13v12.2h-13z"/><path fill="#605740" d="M191.6 602.7h10.5v9h-10.5z"/><path fill="#776B50" d="M180.2 602.7h11.4v9h-11.4zM196.8 597.4v5.3h-16.7c0-2.9 2.4-5.3 5.3-5.3h11.4z"/><path fill="#605740" d="M202.1 602.7h-10.5c0-1.2.4-2.3 1.1-3.2.6-.8 1.5-1.5 2.5-1.8.5-.2 1.1-.3 1.7-.3.6 0 1.2.1 1.8.3 2 .8 3.4 2.7 3.4 5z"/><path stroke="#4F4737" stroke-miterlimit="10" fill="none" d="M180.2 602.7h11.4M191.6 602.7h10.5"/><path fill="#4F4737" d="M186.1 605.9v-1.1c.2-.1.3-.3.3-.5 0-.3-.2-.5-.5-.5s-.5.2-.5.5c0 .2.1.4.3.5v1.6h.9v-.5h-.5z"/></svg>