<?xml version="1.0" encoding="utf-8"?>
<!-- Generator: Adobe Illustrator 18.1.1, SVG Export Plug-In . SVG Version: 6.00 Build 0)  -->
<!DOCTYPE svg PUBLIC "-//W3C//DTD SVG 1.1//EN" "http://www.w3.org/Graphics/SVG/1.1/DTD/svg11.dtd">
<svg version="1.1" id="Layer_1" xmlns="http://www.w3.org/2000/svg" xmlns:xlink="http://www.w3.org/1999/xlink" x="0px" y="0px"
	 viewBox="0 392 576 328" enable-background="new 0 392 576 328" xml:space="preserve">
<path fill="#9CD4E4" d="M530,432.9c-11.5-0.3-19.5-4.6-21.6-5.7v-0.3c0,0-0.1,0.1-0.2,0.2c-0.2-0.1-0.2-0.2-0.2-0.2
	s-8.7,5.6-21.8,6.1c-13.1-0.4-21.8-6.1-21.8-6.1s-0.1,0.1-0.2,0.2c-0.1-0.1-0.2-0.1-0.2-0.1l0,0l0,0l0,0l0,0l0,0
	c0,0-3.8,2.4-10.1,4.3l0,0c-0.3,0.1-0.5,0.2-0.8,0.2c-0.1,0-0.1,0-0.2,0.1c-0.2,0.1-0.5,0.1-0.7,0.2c-0.1,0-0.2,0.1-0.3,0.1
	c-0.2,0-0.4,0.1-0.6,0.1s-0.3,0.1-0.5,0.1s-0.3,0.1-0.5,0.1s-0.4,0.1-0.6,0.1c-0.1,0-0.3,0.1-0.4,0.1c-0.2,0-0.5,0.1-0.7,0.1
	c-0.1,0-0.2,0-0.3,0.1c-0.2,0-0.5,0.1-0.8,0.1c-0.1,0-0.2,0-0.3,0c-0.3,0-0.6,0.1-0.8,0.1c-0.1,0-0.2,0-0.2,0
	c-0.3,0-0.6,0.1-0.9,0.1c-0.1,0-0.1,0-0.2,0c-0.3,0-0.7,0.1-1,0.1c-0.1,0-0.1,0-0.2,0c-0.3,0-0.7,0-1,0.1h-0.1
	c-13.1-0.4-21.8-6.1-21.8-6.1l0,0l0,0c0,0-0.1,0.1-0.2,0.1c-0.2-0.1-0.2-0.1-0.2-0.1l0,0l0,0l0,0l0,0c0,0-8.7,5.6-21.8,6.1
	c-13.1-0.4-21.8-6.1-21.8-6.1l0,0l0,0c0,0-0.1,0.1-0.2,0.1c-0.2-0.1-0.2-0.1-0.2-0.1l0,0l0,0l0,0l0,0l0,0l0,0l0,0l0,0
	c0,0-8.7,5.6-21.8,6.1c-12.7-0.4-21.3-5.7-21.8-6.1l0,0l0,0l0,0l0,0l0,0c0,0-0.1,0.1-0.2,0.1c-0.2-0.1-0.2-0.1-0.2-0.1l0,0l0,0l0,0
	l0,0l0,0l0,0l0,0l0,0c0,0-8.7,5.6-21.8,6.1c-13.1-0.5-21.8-6.1-21.8-6.1l0,0l0,0l0,0l0,0c0,0-0.1,0.1-0.2,0.1
	c-0.1-0.1-0.2-0.1-0.2-0.1l0,0l0,0l0,0l0,0l0,0l0,0l0,0l0,0l0,0l0,0l0,0c0,0-9,5.6-22.1,6.1c-13.1-0.5-21.8-6.1-21.8-6.1l0,0l0,0
	l0,0l0,0c0,0-0.1,0-0.2,0.1c-0.1-0.1-0.2-0.1-0.2-0.1l0,0l0,0l0,0l0,0l0,0l0,0l0,0l0,0c0,0-8.7,5.6-21.8,6.1
	c-13.1-0.5-21.8-6.1-21.8-6.1l0,0l0,0c0,0-0.1,0-0.2,0.1c-0.1-0.1-0.2-0.1-0.2-0.1l0,0l0,0l0,0l0,0l0,0l0,0l0,0l0,0l0,0
	c-0.6,0.4-9.1,5.6-21.8,6.1c-13.1-0.4-21.8-6.1-21.8-6.1l0,0l0,0l0,0c0,0-0.1,0.1-0.2,0.1c-0.2-0.1-0.2-0.1-0.2-0.1l0,0l0,0l0,0l0,0
	c0,0-8.7,5.6-21.8,6.1c-13.1-0.4-21.8-6.1-21.8-6.1s-0.1,0.1-0.2,0.1c-0.2-0.1-0.2-0.1-0.2-0.1l0,0l0,0l0,0l0,0l0,0
	c-0.7,0.4-9.2,5.6-21.8,6.1c-14.2-0.7-22.9-6.4-22.9-6.4v0.3c-0.3-0.2-0.4-0.3-0.4-0.3s-8.8,5.6-22.1,6.1
	c-13.3-0.4-22.1-6.1-22.1-6.1v270.4h44.7h43.7l0,0h44.7h43.7h0.1h44.7h43.7h0.1h44.7h43.7l0,0h44.7h43.7h0.1H509h43.7V426.8
	C552.1,426.8,543.3,432.5,530,432.9z"/>
<rect x="22.1" y="606.5" fill="#E2D69F" width="530" height="90.7"/>
<circle fill="none" stroke="#BEDEE5" stroke-miterlimit="10" cx="293.9" cy="509.2" r="5.9"/>
<circle fill="none" stroke="#BEDEE5" stroke-width="0.5" stroke-miterlimit="10" cx="224.8" cy="556" r="3.8"/>
<circle fill="none" stroke="#BEDEE5" stroke-width="0.5" stroke-miterlimit="10" cx="226.1" cy="528.3" r="8"/>
<circle fill="none" stroke="#BEDEE5" stroke-miterlimit="10" cx="319.6" cy="466.8" r="7.5"/>
<circle fill="none" stroke="#BEDEE5" stroke-miterlimit="10" cx="326.9" cy="502" r="7.2"/>
<path fill="#686767" d="M324.2,603.4l-1.8,1.3l-0.2,2.2L320,609l-0.6,3l-2.5,1.3l0,3c-12.7-9-18.5-18.3-18.9-27.9L324.2,603.4z"/>
<path fill="#686767" d="M349.9,601.2v1.7l2.3,1.7l0.1,3.7l2.3,1.2l0.4,2.9l2.7,2.5c13.3-9.4,10.7-10.4,11-20.5L349.9,601.2z"/>
<line fill="none" stroke="#686767" stroke-width="2" stroke-miterlimit="10" x1="336.6" y1="611.8" x2="336.6" y2="573.3"/>
<rect x="336.6" y="576.3" fill="#FFFFFF" width="13" height="12.2"/>
<g>
	<rect x="191.6" y="602.7" fill="#605740" width="10.5" height="9"/>
	<rect x="180.2" y="602.7" fill="#776B50" width="11.4" height="9"/>
	<path fill="#776B50" d="M196.8,597.4v5.3h-16.7v0c0-2.9,2.4-5.3,5.3-5.3H196.8z"/>
	<path fill="#605740" d="M202.1,602.7h-10.5c0-1.2,0.4-2.3,1.1-3.2c0.6-0.8,1.5-1.5,2.5-1.8c0.5-0.2,1.1-0.3,1.7-0.3
		c0.6,0,1.2,0.1,1.8,0.3C200.7,598.5,202.1,600.4,202.1,602.7z"/>
	<line fill="none" stroke="#4F4737" stroke-miterlimit="10" x1="180.2" y1="602.7" x2="191.6" y2="602.7"/>
	<line fill="none" stroke="#4F4737" stroke-miterlimit="10" x1="191.6" y1="602.7" x2="202.1" y2="602.7"/>
	<path fill="#4F4737" d="M186.1,605.9v-1.1c0.2-0.1,0.3-0.3,0.3-0.5c0-0.3-0.2-0.5-0.5-0.5c-0.3,0-0.5,0.2-0.5,0.5
		c0,0.2,0.1,0.4,0.3,0.5v1.1v0.5h0.5h0.4v-0.5H186.1z"/>
</g>
</svg>
